<svg xmlns="http://www.w3.org/2000/svg" xmlns:xlink="http://www.w3.org/1999/xlink" viewBox="0 0 500.21 222.6"><defs><style>.a{isolation:isolate;}.b{fill:#42290f;}.at,.b,.cy,.d,.l,.y{mix-blend-mode:multiply;}.c{fill:#954b38;}.d,.e{fill:#61222a;}.d{opacity:0.19;}.f,.g{fill:#edc983;}.au,.f,.y{opacity:0.5;}.f,.g,.k{mix-blend-mode:soft-light;}.g{opacity:0.3;}.h{fill:url(#a);}.i{fill:url(#b);}.j{fill:url(#c);}.k{fill:#fff;}.l,.m,.y{fill:#e47e4b;}.l{opacity:0.27;}.n{fill:#772a1c;}.o{fill:url(#d);}.p{fill:url(#e);}.q{fill:url(#f);}.r{fill:url(#g);}.s{fill:url(#h);}.t{fill:url(#i);}.at,.au,.u{fill:#efa75f;}.v{fill:url(#j);}.w{fill:url(#k);}.x{fill:#ffcc8b;}.z{fill:url(#l);}.aa{fill:url(#m);}.ab{fill:url(#n);}.ac{fill:url(#o);}.ad{fill:url(#p);}.ae{fill:url(#q);}.af{fill:url(#r);}.ag{fill:url(#s);}.ah{fill:url(#t);}.ai{fill:url(#u);}.aj{fill:url(#v);}.ak{fill:url(#w);}.al{fill:url(#x);}.am{fill:url(#y);}.an{fill:url(#z);}.ao{fill:url(#aa);}.ap{fill:url(#ab);}.aq{fill:url(#ac);}.ar{fill:url(#ad);}.as{fill:url(#ae);}.at,.cy{opacity:0.2;}.av{fill:url(#af);}.aw{fill:url(#ag);}.ax{fill:url(#ah);}.ay{fill:url(#ai);}.az{fill:url(#aj);}.ba{fill:url(#ak);}.bb{fill:url(#al);}.bc{fill:url(#am);}.bd{fill:url(#an);}.be{fill:url(#ao);}.bf{fill:url(#ap);}.bg{fill:url(#aq);}.bh{fill:url(#ar);}.bi{fill:url(#as);}.bj{fill:url(#at);}.bk{fill:url(#au);}.bl{fill:url(#av);}.bm{fill:url(#aw);}.bn{fill:url(#ax);}.bo{fill:url(#ay);}.bp{fill:url(#az);}.bq{fill:url(#ba);}.br{fill:url(#bb);}.bs{fill:url(#bc);}.bt{fill:url(#bd);}.bu{fill:url(#be);}.bv{fill:url(#bf);}.bw{fill:url(#bg);}.bx{fill:url(#bh);}.by{fill:url(#bi);}.bz{fill:url(#bj);}.ca{fill:url(#bk);}.cb{fill:url(#bl);}.cc{fill:url(#bm);}.cd{fill:url(#bn);}.ce{fill:url(#bo);}.cf{fill:url(#bp);}.cg{fill:url(#bq);}.ch{fill:url(#br);}.ci{fill:url(#bs);}.cj{fill:url(#bt);}.ck{fill:url(#bu);}.cl{fill:url(#bv);}.cm{fill:url(#bw);}.cn{fill:url(#bx);}.co{fill:url(#by);}.cp{fill:url(#bz);}.cq{fill:url(#ca);}.cr{fill:url(#cb);}.cs{fill:url(#cc);}.ct{fill:url(#cd);}.cu{fill:url(#ce);}.cv{fill:url(#cf);}.cw{fill:url(#cg);}.cx{fill:url(#ch);}.cy{fill:#823560;}.cz{fill:#aa6160;}.da{fill:url(#ci);}.db{fill:url(#cj);}.dc{fill:url(#ck);}.dd{fill:url(#cl);}.de{fill:url(#cm);}.df{fill:url(#cn);}.dg{fill:url(#co);}.dh{fill:url(#cp);}.di{fill:url(#cq);}.dj{fill:url(#cr);}.dk{fill:url(#cs);}.dl{fill:url(#ct);}.dm{fill:url(#cu);}.dn{fill:url(#cv);}.do{fill:url(#cw);}.dp{fill:url(#cx);}.dq{fill:url(#cy);}.dr{fill:url(#cz);}.ds{fill:url(#da);}.dt{fill:url(#db);}.du{fill:url(#dc);}.dv{fill:url(#dd);}.dw{fill:url(#de);}.dx{fill:url(#df);}.dy{fill:url(#dg);}.dz{fill:url(#dh);}.ea{fill:url(#di);}.eb{fill:url(#dj);}.ec{fill:url(#dk);}.ed{fill:url(#dl);}.ee{fill:url(#dm);}.ef{fill:url(#dn);}.eg{fill:url(#do);}.eh{fill:url(#dp);}</style><linearGradient id="a" x1="245.37" y1="142.32" x2="248.21" y2="142.32" gradientTransform="translate(132.53 -218.04) rotate(45.69)" gradientUnits="userSpaceOnUse"><stop offset="0" stop-color="#ffde95"/><stop offset="1" stop-color="#f8af6b"/></linearGradient><linearGradient id="b" x1="238.36" y1="142.35" x2="247.12" y2="142.35" xlink:href="#a"/><linearGradient id="c" x1="240.86" y1="140.72" x2="245.47" y2="140.72" xlink:href="#a"/><linearGradient id="d" x1="253.72" y1="133.3" x2="256.55" y2="133.3" gradientTransform="matrix(0.75, 0.67, -0.67, 0.75, 113.98, -203.15)" xlink:href="#a"/><linearGradient id="e" x1="246.71" y1="133.33" x2="255.46" y2="133.33" gradientTransform="matrix(0.75, 0.67, -0.67, 0.75, 113.98, -203.15)" xlink:href="#a"/><linearGradient id="f" x1="249.2" y1="131.7" x2="253.82" y2="131.7" gradientTransform="matrix(0.75, 0.67, -0.67, 0.75, 113.98, -203.15)" xlink:href="#a"/><linearGradient id="g" x1="212.75" y1="113.36" x2="215.58" y2="113.36" gradientTransform="translate(57.04 -146.84) rotate(27.62)" xlink:href="#a"/><linearGradient id="h" x1="205.74" y1="113.4" x2="214.49" y2="113.4" gradientTransform="translate(57.04 -146.84) rotate(27.62)" xlink:href="#a"/><linearGradient id="i" x1="208.23" y1="111.76" x2="212.85" y2="111.76" gradientTransform="translate(57.04 -146.84) rotate(27.62)" xlink:href="#a"/><linearGradient id="j" x1="92.89" y1="53.71" x2="167.74" y2="53.71" gradientTransform="matrix(0.99, -0.12, 0.12, 0.99, -9.2, 21.68)" xlink:href="#a"/><linearGradient id="k" x1="95.51" y1="72.97" x2="178.05" y2="72.97" gradientTransform="matrix(0.99, -0.12, 0.12, 0.99, -9.2, 21.68)" xlink:href="#a"/><linearGradient id="l" x1="188.13" y1="73.83" x2="191.26" y2="73.83" gradientTransform="translate(3.7 -44.92) rotate(6.18)" xlink:href="#a"/><linearGradient id="m" x1="180.38" y1="73.87" x2="190.06" y2="73.87" gradientTransform="translate(3.7 -44.92) rotate(6.18)" xlink:href="#a"/><linearGradient id="n" x1="183.13" y1="72.06" x2="188.24" y2="72.06" gradientTransform="translate(3.7 -44.92) rotate(6.18)" xlink:href="#a"/><linearGradient id="o" x1="177.07" y1="48.2" x2="180.21" y2="48.2" gradientTransform="matrix(0.99, -0.12, 0.12, 0.99, -9.2, 21.68)" xlink:href="#a"/><linearGradient id="p" x1="169.32" y1="48.24" x2="179" y2="48.24" gradientTransform="matrix(0.99, -0.12, 0.12, 0.99, -9.2, 21.68)" xlink:href="#a"/><linearGradient id="q" x1="172.08" y1="46.43" x2="177.18" y2="46.43" gradientTransform="matrix(0.99, -0.12, 0.12, 0.99, -9.2, 21.68)" xlink:href="#a"/><linearGradient id="r" x1="400.81" y1="19.69" x2="431.63" y2="19.69" gradientTransform="translate(45.84 -192.84) rotate(27.09)" xlink:href="#a"/><linearGradient id="s" x1="320.6" y1="60.46" x2="322.28" y2="60.46" gradientTransform="matrix(-0.86, 0.51, 0.51, 0.86, 591.01, -169.82)" xlink:href="#a"/><linearGradient id="t" x1="316.44" y1="60.47" x2="321.64" y2="60.47" gradientTransform="matrix(-0.86, 0.51, 0.51, 0.86, 591.01, -169.82)" xlink:href="#a"/><linearGradient id="u" x1="317.92" y1="59.51" x2="320.66" y2="59.51" gradientTransform="matrix(-0.86, 0.51, 0.51, 0.86, 591.01, -169.82)" xlink:href="#a"/><linearGradient id="v" x1="309.66" y1="57.75" x2="311.34" y2="57.75" gradientTransform="matrix(-0.96, 0.29, 0.29, 0.96, 636.23, -103.44)" xlink:href="#a"/><linearGradient id="w" x1="305.5" y1="57.77" x2="310.69" y2="57.77" gradientTransform="matrix(-0.96, 0.29, 0.29, 0.96, 636.23, -103.44)" xlink:href="#a"/><linearGradient id="x" x1="306.98" y1="56.8" x2="309.72" y2="56.8" gradientTransform="matrix(-0.96, 0.29, 0.29, 0.96, 636.23, -103.44)" xlink:href="#a"/><linearGradient id="y" x1="397.49" y1="82.29" x2="438.6" y2="82.29" gradientTransform="translate(0.94 -53.44) rotate(3.82)" xlink:href="#a"/><linearGradient id="z" x1="390.98" y1="90.76" x2="435.41" y2="90.76" gradientTransform="translate(0.94 -53.44) rotate(3.82)" xlink:href="#a"/><linearGradient id="aa" x1="275.29" y1="57.02" x2="277.15" y2="57.02" gradientTransform="matrix(-0.95, -0.31, -0.31, 0.95, 667.83, 75.06)" xlink:href="#a"/><linearGradient id="ab" x1="270.69" y1="57.04" x2="276.44" y2="57.04" gradientTransform="matrix(-0.95, -0.31, -0.31, 0.95, 667.83, 75.06)" xlink:href="#a"/><linearGradient id="ac" x1="272.33" y1="55.97" x2="275.36" y2="55.97" gradientTransform="matrix(-0.95, -0.31, -0.31, 0.95, 667.83, 75.06)" xlink:href="#a"/><linearGradient id="ad" x1="361.97" y1="37.06" x2="406.54" y2="37.06" gradientTransform="matrix(0.98, 0.19, -0.19, 0.98, 12.6, -73.36)" xlink:href="#a"/><linearGradient id="ae" x1="409.1" y1="40.99" x2="436.09" y2="40.99" gradientTransform="translate(1.07 -9.6) rotate(1.48)" xlink:href="#a"/><linearGradient id="af" x1="332.73" y1="35.68" x2="336.18" y2="35.68" gradientTransform="translate(12.49 42.56) rotate(7.54)" xlink:href="#a"/><linearGradient id="ag" x1="324.21" y1="35.72" x2="334.85" y2="35.72" gradientTransform="translate(12.49 42.56) rotate(7.54)" xlink:href="#a"/><linearGradient id="ah" x1="327.24" y1="33.74" x2="332.85" y2="33.74" gradientTransform="translate(12.49 42.56) rotate(7.54)" xlink:href="#a"/><linearGradient id="ai" x1="316.83" y1="31.36" x2="320.28" y2="31.36" gradientTransform="matrix(1, -0.01, 0.01, 1, 11.32, 89.99)" xlink:href="#a"/><linearGradient id="aj" x1="308.31" y1="31.4" x2="318.95" y2="31.4" gradientTransform="matrix(1, -0.01, 0.01, 1, 11.32, 89.99)" xlink:href="#a"/><linearGradient id="ak" x1="311.34" y1="29.42" x2="316.95" y2="29.42" gradientTransform="matrix(1, -0.01, 0.01, 1, 11.32, 89.99)" xlink:href="#a"/><linearGradient id="al" x1="300.52" y1="30.97" x2="303.97" y2="30.97" gradientTransform="matrix(0.99, -0.12, 0.12, 0.99, 15.66, 124.82)" xlink:href="#a"/><linearGradient id="am" x1="292" y1="31.01" x2="302.65" y2="31.01" gradientTransform="matrix(0.99, -0.12, 0.12, 0.99, 15.66, 124.82)" xlink:href="#a"/><linearGradient id="an" x1="295.03" y1="29.03" x2="300.65" y2="29.03" gradientTransform="matrix(0.99, -0.12, 0.12, 0.99, 15.66, 124.82)" xlink:href="#a"/><linearGradient id="ao" x1="279.22" y1="26.18" x2="282.67" y2="26.18" gradientTransform="translate(35.91 193.08) rotate(-19.78)" xlink:href="#a"/><linearGradient id="ap" x1="270.7" y1="26.22" x2="281.35" y2="26.22" gradientTransform="translate(35.91 193.08) rotate(-19.78)" xlink:href="#a"/><linearGradient id="aq" x1="273.73" y1="24.24" x2="279.35" y2="24.24" gradientTransform="translate(35.91 193.08) rotate(-19.78)" xlink:href="#a"/><linearGradient id="ar" x1="304.14" y1="161.05" x2="324.46" y2="161.05" gradientTransform="matrix(1, 0, 0, 1, 0, 0)" xlink:href="#a"/><linearGradient id="as" x1="315.79" y1="159.2" x2="336.11" y2="159.2" gradientTransform="matrix(1, 0.05, -0.05, 1, 7.08, -17.91)" xlink:href="#a"/><linearGradient id="at" x1="326.45" y1="159.93" x2="346.77" y2="159.93" gradientTransform="matrix(0.98, 0.17, -0.17, 0.98, 26.22, -58.27)" xlink:href="#a"/><linearGradient id="au" x1="333.78" y1="189.13" x2="333.82" y2="189.13" gradientTransform="matrix(1, 0, 0, 1, 0, 0)" xlink:href="#a"/><linearGradient id="av" x1="333.73" y1="189.22" x2="333.78" y2="189.22" gradientTransform="matrix(1, 0, 0, 1, 0, 0)" xlink:href="#a"/><linearGradient id="aw" x1="337.68" y1="135.4" x2="346.83" y2="135.4" gradientTransform="matrix(1, 0, 0, 1, 0, 0)" xlink:href="#a"/><linearGradient id="ax" x1="412.89" y1="25.42" x2="416.07" y2="25.42" gradientTransform="matrix(-1, -0.01, -0.01, 1, 614.05, 89.99)" xlink:href="#a"/><linearGradient id="ay" x1="405.04" y1="25.45" x2="414.85" y2="25.45" gradientTransform="matrix(-1, -0.01, -0.01, 1, 614.05, 89.99)" xlink:href="#a"/><linearGradient id="az" x1="407.83" y1="23.62" x2="413" y2="23.62" gradientTransform="matrix(-1, -0.01, -0.01, 1, 614.05, 89.99)" xlink:href="#a"/><linearGradient id="ba" x1="391.4" y1="34.88" x2="394.58" y2="34.88" gradientTransform="matrix(-0.99, -0.12, -0.12, 0.99, 609.72, 124.82)" xlink:href="#a"/><linearGradient id="bb" x1="383.55" y1="34.92" x2="393.36" y2="34.92" gradientTransform="matrix(-0.99, -0.12, -0.12, 0.99, 609.72, 124.82)" xlink:href="#a"/><linearGradient id="bc" x1="386.34" y1="33.09" x2="391.52" y2="33.09" gradientTransform="matrix(-0.99, -0.12, -0.12, 0.99, 609.72, 124.82)" xlink:href="#a"/><linearGradient id="bd" x1="367.7" y1="50.58" x2="370.88" y2="50.58" gradientTransform="matrix(-0.94, -0.34, -0.34, 0.94, 589.46, 193.08)" xlink:href="#a"/><linearGradient id="be" x1="359.85" y1="50.62" x2="369.66" y2="50.62" gradientTransform="matrix(-0.94, -0.34, -0.34, 0.94, 589.46, 193.08)" xlink:href="#a"/><linearGradient id="bf" x1="362.64" y1="48.79" x2="367.81" y2="48.79" gradientTransform="matrix(-0.94, -0.34, -0.34, 0.94, 589.46, 193.08)" xlink:href="#a"/><linearGradient id="bg" x1="395.92" y1="151.1" x2="414.64" y2="151.1" gradientTransform="matrix(-1, 0, 0, 1, 625.38, 0)" xlink:href="#a"/><linearGradient id="bh" x1="197.75" y1="159.36" x2="203.64" y2="159.36" gradientTransform="matrix(0.96, -0.26, 0.26, 0.96, -36.27, 59.43)" xlink:href="#a"/><linearGradient id="bi" x1="202.59" y1="125.82" x2="218.38" y2="125.82" gradientTransform="matrix(1, 0, 0, 1, 0, 0)" xlink:href="#a"/><linearGradient id="bj" x1="287.45" y1="173.87" x2="293.56" y2="173.87" gradientTransform="matrix(0.77, -0.63, 0.63, 0.77, -55.19, 207.18)" xlink:href="#a"/><linearGradient id="bk" x1="398.32" y1="118.31" x2="423.27" y2="118.31" gradientTransform="matrix(0.74, -0.67, 0.67, 0.74, 26.38, 308.22)" xlink:href="#a"/><radialGradient id="bl" cx="409.07" cy="119.83" r="11.41" gradientUnits="userSpaceOnUse"><stop offset="0" stop-color="#c56320"/><stop offset="1" stop-color="#ffde95"/></radialGradient><linearGradient id="bm" x1="190.78" y1="-209.49" x2="205.23" y2="-209.49" gradientTransform="matrix(0.74, -0.67, 0.67, 0.74, 26.38, 308.22)" xlink:href="#a"/><radialGradient id="bn" cx="31.67" cy="20.03" r="6.61" xlink:href="#bl"/><linearGradient id="bo" x1="151.94" y1="151.1" x2="166.7" y2="151.1" gradientTransform="matrix(1, 0, 0, 1, 0, 0)" xlink:href="#a"/><linearGradient id="bp" x1="149.84" y1="157.44" x2="163.67" y2="157.44" gradientTransform="matrix(1, 0, 0, 1, 0, 0)" xlink:href="#a"/><linearGradient id="bq" x1="141.94" y1="160.34" x2="149.69" y2="160.34" gradientTransform="matrix(1, 0, 0, 1, 0, 0)" xlink:href="#a"/><linearGradient id="br" x1="132.4" y1="159.72" x2="145.05" y2="159.72" gradientTransform="matrix(1, 0, 0, 1, 0, 0)" xlink:href="#a"/><linearGradient id="bs" x1="129.16" y1="150.15" x2="140.53" y2="150.15" gradientTransform="matrix(1, 0, 0, 1, 0, 0)" xlink:href="#a"/><linearGradient id="bt" x1="134.06" y1="140.98" x2="140.56" y2="140.98" gradientTransform="matrix(1, 0, 0, 1, 0, 0)" xlink:href="#a"/><linearGradient id="bu" x1="144.94" y1="141.69" x2="153.64" y2="141.69" gradientTransform="matrix(1, 0, 0, 1, 0, 0)" xlink:href="#a"/><linearGradient id="bv" x1="147.93" y1="149.26" x2="153.64" y2="149.26" gradientTransform="matrix(1, 0, 0, 1, 0, 0)" xlink:href="#a"/><linearGradient id="bw" x1="143.66" y1="153.06" x2="149.02" y2="153.06" gradientTransform="matrix(1, 0, 0, 1, 0, 0)" xlink:href="#a"/><linearGradient id="bx" x1="139.59" y1="152.1" x2="143.91" y2="152.1" gradientUnits="userSpaceOnUse"><stop offset="0" stop-color="#f8af6b"/><stop offset="1" stop-color="#ffde95"/></linearGradient><linearGradient id="by" x1="137.7" y1="150.75" x2="142.93" y2="150.75" xlink:href="#bx"/><linearGradient id="bz" x1="138.23" y1="147.14" x2="142.45" y2="147.14" xlink:href="#bx"/><linearGradient id="ca" x1="139.14" y1="144.64" x2="143.26" y2="144.64" xlink:href="#bx"/><linearGradient id="cb" x1="142.32" y1="144.53" x2="146.5" y2="144.53" gradientTransform="matrix(1, 0, 0, 1, 0, 0)" xlink:href="#a"/><linearGradient id="cc" x1="144.31" y1="145.14" x2="149.02" y2="145.14" gradientTransform="matrix(1, 0, 0, 1, 0, 0)" xlink:href="#a"/><linearGradient id="cd" x1="144.59" y1="147.08" x2="149.29" y2="147.08" gradientTransform="matrix(1, 0, 0, 1, 0, 0)" xlink:href="#a"/><linearGradient id="ce" x1="142.25" y1="149.76" x2="145.4" y2="149.76" gradientTransform="matrix(1, 0, 0, 1, 0, 0)" xlink:href="#a"/><linearGradient id="cf" x1="140.56" y1="148.76" x2="143.66" y2="148.76" gradientTransform="matrix(1, 0, 0, 1, 0, 0)" xlink:href="#a"/><linearGradient id="cg" x1="141.2" y1="146.93" x2="143.66" y2="146.93" gradientTransform="matrix(1, 0, 0, 1, 0, 0)" xlink:href="#a"/><linearGradient id="ch" x1="142.54" y1="147.33" x2="145.82" y2="147.33" gradientTransform="matrix(1, 0, 0, 1, 0, 0)" xlink:href="#a"/><linearGradient id="ci" x1="178.88" y1="-154.92" x2="189.71" y2="-154.92" gradientTransform="translate(199.66 243.86) rotate(-86.55)" xlink:href="#a"/><linearGradient id="cj" x1="177.34" y1="-150.27" x2="187.49" y2="-150.27" gradientTransform="translate(199.66 243.86) rotate(-86.55)" xlink:href="#a"/><linearGradient id="ck" x1="171.55" y1="-148.14" x2="177.23" y2="-148.14" gradientTransform="translate(199.66 243.86) rotate(-86.55)" xlink:href="#a"/><linearGradient id="cl" x1="164.54" y1="-148.6" x2="173.83" y2="-148.6" gradientTransform="translate(199.66 243.86) rotate(-86.55)" xlink:href="#a"/><linearGradient id="cm" x1="162.17" y1="-155.62" x2="170.51" y2="-155.62" gradientTransform="translate(199.66 243.86) rotate(-86.55)" xlink:href="#a"/><linearGradient id="cn" x1="165.76" y1="-162.35" x2="170.53" y2="-162.35" gradientTransform="translate(199.66 243.86) rotate(-86.55)" xlink:href="#a"/><linearGradient id="co" x1="173.74" y1="-161.83" x2="180.13" y2="-161.83" gradientTransform="translate(199.66 243.86) rotate(-86.55)" xlink:href="#a"/><linearGradient id="cp" x1="175.94" y1="-156.28" x2="180.13" y2="-156.28" gradientTransform="translate(199.66 243.86) rotate(-86.55)" xlink:href="#a"/><linearGradient id="cq" x1="172.81" y1="-153.49" x2="176.74" y2="-153.49" gradientTransform="translate(199.66 243.86) rotate(-86.55)" xlink:href="#a"/><linearGradient id="cr" x1="169.82" y1="-154.19" x2="172.99" y2="-154.19" gradientTransform="translate(199.66 243.86) rotate(-86.55)" xlink:href="#bx"/><linearGradient id="cs" x1="168.43" y1="-155.18" x2="172.27" y2="-155.18" gradientTransform="translate(199.66 243.86) rotate(-86.55)" xlink:href="#bx"/><linearGradient id="ct" x1="168.82" y1="-157.83" x2="171.92" y2="-157.83" gradientTransform="translate(199.66 243.86) rotate(-86.55)" xlink:href="#bx"/><linearGradient id="cu" x1="169.49" y1="-159.66" x2="172.51" y2="-159.66" gradientTransform="translate(199.66 243.86) rotate(-86.55)" xlink:href="#bx"/><linearGradient id="cv" x1="171.82" y1="-159.75" x2="174.89" y2="-159.75" gradientTransform="translate(199.66 243.86) rotate(-86.55)" xlink:href="#a"/><linearGradient id="cw" x1="173.28" y1="-159.3" x2="176.74" y2="-159.3" gradientTransform="translate(199.66 243.86) rotate(-86.55)" xlink:href="#a"/><linearGradient id="cx" x1="173.49" y1="-157.87" x2="176.94" y2="-157.87" gradientTransform="translate(199.66 243.86) rotate(-86.55)" xlink:href="#a"/><linearGradient id="cy" x1="171.77" y1="-155.91" x2="174.08" y2="-155.91" gradientTransform="translate(199.66 243.86) rotate(-86.55)" xlink:href="#a"/><linearGradient id="cz" x1="170.53" y1="-156.64" x2="172.81" y2="-156.64" gradientTransform="translate(199.66 243.86) rotate(-86.55)" xlink:href="#a"/><linearGradient id="da" x1="171" y1="-157.99" x2="172.81" y2="-157.99" gradientTransform="translate(199.66 243.86) rotate(-86.55)" xlink:href="#a"/><linearGradient id="db" x1="171.99" y1="-157.69" x2="174.39" y2="-157.69" gradientTransform="translate(199.66 243.86) rotate(-86.55)" xlink:href="#a"/><linearGradient id="dc" x1="270.34" y1="73.34" x2="295.39" y2="73.34" gradientTransform="matrix(0.91, 0.41, -0.41, 0.91, 54.24, -107.85)" xlink:href="#a"/><linearGradient id="dd" x1="270.34" y1="110.51" x2="282.86" y2="110.51" gradientTransform="matrix(0.91, 0.41, -0.41, 0.91, 54.24, -107.85)" xlink:href="#a"/><linearGradient id="de" x1="37.66" y1="89.25" x2="62.71" y2="89.25" gradientTransform="translate(-20.9 199.38) rotate(-106.62)" xlink:href="#a"/><linearGradient id="df" x1="37.67" y1="126.41" x2="50.19" y2="126.41" gradientTransform="translate(-20.9 199.38) rotate(-106.62)" xlink:href="#a"/><linearGradient id="dg" x1="379.68" y1="89.26" x2="386.37" y2="89.26" gradientTransform="matrix(1, 0, 0, 1, 0, 0)" xlink:href="#a"/><linearGradient id="dh" x1="350.76" y1="183.62" x2="357.45" y2="183.62" gradientTransform="matrix(1, 0, 0, 1, 0, 0)" xlink:href="#a"/><linearGradient id="di" x1="64.42" y1="85.18" x2="71.11" y2="85.18" gradientTransform="matrix(1, 0, 0, 1, 0, 0)" xlink:href="#a"/><linearGradient id="dj" x1="393.24" y1="84.23" x2="395.97" y2="84.23" gradientTransform="translate(30.89 -91.06) rotate(13.66)" xlink:href="#a"/><linearGradient id="dk" x1="261.51" y1="183.23" x2="264.24" y2="183.23" gradientTransform="translate(30.89 -91.06) rotate(13.66)" xlink:href="#a"/><linearGradient id="dl" x1="211.39" y1="232.91" x2="214.13" y2="232.91" gradientTransform="translate(30.89 -91.06) rotate(13.66)" xlink:href="#a"/><linearGradient id="dm" x1="322.88" y1="219.46" x2="325.62" y2="219.46" gradientTransform="translate(30.89 -91.06) rotate(13.66)" xlink:href="#a"/><linearGradient id="dn" x1="460.81" y1="43.07" x2="463.55" y2="43.07" gradientTransform="matrix(1, 0, 0, 1, 0, 0)" xlink:href="#a"/><linearGradient id="do" x1="106.3" y1="19.72" x2="112.99" y2="19.72" gradientTransform="matrix(-1, 0, 0, 1, 418.42, 0)" xlink:href="#a"/><linearGradient id="dp" x1="402.07" y1="83.16" x2="408.18" y2="83.16" gradientTransform="matrix(0.32, -0.95, 0.95, 0.32, 103.44, 375.03)" xlink:href="#a"/></defs><title>dinosaurs</title><g class="a"><polygon class="b" points="0 171.46 14.25 186.93 19.19 174.33 33.97 167.1 56.83 168.86 58.55 162.11 42.46 154.12 45.83 147.06 58.55 142.6 67.66 147.06 67.66 155.59 82.83 144.1 97.83 140.6 120.67 152.8 117.83 167.76 171.33 186.93 174.83 199.59 172.33 207.93 165.33 214.6 151.58 222.6 0 222.6 0 171.46"/><polygon class="b" points="500 170.06 488.44 170.06 484.19 162.44 457.63 153.64 432.25 160.61 429.21 153.64 413.19 147.07 396.48 150.84 385.41 165.45 388.5 183.12 379.75 187.83 377 201.92 397.42 216.3 474.33 203.93 488.44 186.46 499.8 186.46 500 170.06"/><polygon class="c" points="17.26 200.56 23.55 175.96 30.79 171.46 56.83 174.33 67.66 193.05 63.6 209.33 54.7 212.76 30.03 212.76 17.26 200.56"/><polygon class="d" points="23.55 175.96 19.35 199.16 31.72 204.94 54.7 206.53 59.28 203.94 62.8 195.33 59.02 190.89 62.24 189.3 60.93 185.58 56.83 174.33 67.66 193.05 63.6 209.33 54.7 212.76 30.03 212.76 17.26 200.56 23.55 175.96"/><polygon class="e" points="54.7 212.76 54.7 206.53 52.67 199.16 55.71 205.96 55.71 212.76 54.7 212.76"/><polygon class="e" points="30.03 212.76 31.72 204.94 37.47 194.64 37.47 189.3 37.8 195.22 32.42 204.94 30.65 212.76 30.03 212.76"/><polygon class="f" points="30.03 212.76 30.03 204.15 36.99 194.36 37.47 189.3 37.47 194.64 31.72 204.94 30.03 212.76"/><polygon class="f" points="52.86 199.59 55.71 205.96 55.71 212.76 56.48 205.53 52.86 199.59"/><polygon class="g" points="21.83 185.45 38.81 185.45 55.71 179.27 60.16 180.09 56.83 174.33 30.79 171.46 23.55 175.96 21.83 185.45"/><polygon class="g" points="49.23 194.58 54.19 204.68 37.47 204.68 42.46 198.4 49.23 194.58"/><polygon class="d" points="17.26 200.56 19.16 199.63 31.45 206.18 54.7 206.98 60.16 205.2 63.6 209.33 54.7 212.76 30.03 212.76 17.26 200.56"/><polygon class="d" points="67.66 193.05 62.24 189.3 56.83 174.33 67.66 193.05"/><polygon class="c" points="386.32 195.96 385.47 188.41 387.02 186.39 394.6 184.42 399.62 188.5 400.21 193.49 398.09 195.39 391.19 198.01 386.32 195.96"/><polygon class="d" points="385.47 188.41 386.76 195.34 390.83 195.65 397.43 193.65 398.43 192.44 398.5 189.66 396.97 188.82 397.7 188.03 396.94 187.13 394.6 184.42 399.62 188.5 400.21 193.49 398.09 195.39 391.19 198.01 386.32 195.96 385.47 188.41"/><polygon class="e" points="398.09 195.39 397.43 193.65 396.07 191.8 397.65 193.38 398.37 195.28 398.09 195.39"/><polygon class="e" points="391.19 198.01 390.83 195.65 391.35 192.16 390.78 190.66 391.5 192.28 391.03 195.57 391.37 197.95 391.19 198.01"/><polygon class="f" points="391.19 198.01 390.28 195.6 391.18 192.13 390.78 190.66 391.35 192.16 390.83 195.65 391.19 198.01"/><polygon class="f" points="396.17 191.91 397.65 193.38 398.37 195.28 397.82 193.18 396.17 191.91"/><polygon class="g" points="386 191.25 390.74 189.44 394.81 185.92 396.14 185.68 394.6 184.42 387.02 186.39 385.47 188.41 386 191.25"/><polygon class="g" points="394.63 190.89 397.08 193.19 392.41 194.96 393.14 192.68 394.63 190.89"/><polygon class="d" points="386.32 195.96 386.76 195.5 390.89 196.02 397.47 193.77 398.81 192.7 400.21 193.49 398.09 195.39 391.19 198.01 386.32 195.96"/><polygon class="d" points="399.62 188.5 397.7 188.03 394.6 184.42 399.62 188.5"/><polygon class="b" points="500.21 72.61 488.44 76.58 484.19 67.43 462.46 65.82 456.01 74.43 454.69 81.17 448.67 78.76 439.5 83.21 432.67 92.28 438.5 99.43 464.25 95.18 476.07 100.43 493.83 96.81 500.15 85.93 500.21 72.61"/><polygon class="c" points="61.82 158.58 64.22 151.37 63.12 149.07 56.11 145.58 50.35 148.54 48.74 153.29 50.43 155.59 56.63 159.58 61.82 158.58"/><polygon class="d" points="64.22 151.37 61.52 157.88 57.47 157.34 51.43 154.02 50.7 152.63 51.21 149.89 52.88 149.39 52.32 148.47 53.25 147.75 56.11 145.58 50.35 148.54 48.74 153.29 50.43 155.59 56.63 159.58 61.82 158.58 64.22 151.37"/><polygon class="e" points="50.43 155.59 51.43 154.02 53.14 152.5 51.27 153.72 50.17 155.43 50.43 155.59"/><polygon class="e" points="56.63 159.58 57.47 157.34 57.69 153.82 58.55 152.47 57.51 153.91 57.3 157.23 56.48 159.48 56.63 159.58"/><polygon class="f" points="56.63 159.58 58.02 157.41 57.86 153.82 58.55 152.47 57.69 153.82 57.47 157.34 56.63 159.58"/><polygon class="f" points="53.02 152.57 51.27 153.72 50.17 155.43 51.15 153.48 53.02 152.57"/><polygon class="g" points="63.11 154.03 58.84 151.29 55.59 147 54.34 146.49 56.11 145.58 63.12 149.07 64.22 151.37 63.11 154.03"/><polygon class="g" points="54.74 151.9 51.86 153.64 56.07 156.34 55.83 153.96 54.74 151.9"/><polygon class="d" points="61.82 158.58 61.49 158.03 57.34 157.69 51.36 154.13 50.28 152.8 48.74 153.29 50.43 155.59 56.63 159.58 61.82 158.58"/><polygon class="d" points="50.35 148.54 52.32 148.47 56.11 145.58 50.35 148.54"/><polygon class="c" points="459.87 85.14 463.44 71.2 467.55 68.65 482.31 70.27 488.44 80.89 486.14 90.11 481.1 92.06 467.11 92.06 459.87 85.14"/><polygon class="d" points="463.44 71.2 461.06 84.35 468.07 87.62 481.1 88.53 483.69 87.06 485.69 82.18 483.55 79.66 485.38 78.76 484.63 76.65 482.31 70.27 488.44 80.89 486.14 90.11 481.1 92.06 467.11 92.06 459.87 85.14 463.44 71.2"/><polygon class="e" points="481.1 92.06 481.1 88.53 479.94 84.35 481.67 88.21 481.67 92.06 481.1 92.06"/><polygon class="e" points="467.11 92.06 468.07 87.62 471.33 81.79 471.33 78.76 471.52 82.11 468.46 87.63 467.46 92.06 467.11 92.06"/><polygon class="f" points="467.11 92.06 467.11 87.18 471.06 81.63 471.33 78.76 471.33 81.79 468.07 87.62 467.11 92.06"/><polygon class="f" points="480.06 84.6 481.67 88.21 481.67 92.06 482.11 87.96 480.06 84.6"/><polygon class="g" points="462.46 76.58 472.09 76.58 481.67 73.07 484.19 73.54 482.31 70.27 467.55 68.65 463.44 71.2 462.46 76.58"/><polygon class="g" points="478 81.75 480.81 87.48 471.33 87.48 474.16 83.92 478 81.75"/><polygon class="d" points="459.87 85.14 460.95 84.62 467.92 88.33 481.1 88.78 484.19 87.77 486.14 90.11 481.1 92.06 467.11 92.06 459.87 85.14"/><polygon class="d" points="488.44 80.89 485.38 78.76 482.31 70.27 488.44 80.89"/><polygon class="c" points="110.22 153.79 108.52 162.49 94.44 168.88 82.06 167.05 75.41 158.91 74.31 154.9 75.08 154.19 82.06 147.69 93.2 146.01 110.22 153.79"/><polygon class="g" points="110.22 153.79 99.85 156.18 85.31 157.44 75.41 154.9 75.08 154.19 82.06 147.69 93.2 146.01 110.22 153.79"/><polygon class="d" points="74.43 155.33 85.31 158.25 99.49 156.79 99.13 161.94 100.83 156.58 110.08 154.51 108.52 162.49 94.44 168.88 82.06 167.05 75.41 158.91 74.43 155.33"/><polygon class="d" points="85.31 158.25 94.44 168.88 82.06 167.05 75.41 158.91 74.43 155.33 85.31 158.25"/><polygon class="d" points="104.13 155.84 102.82 165.08 108.52 162.49 110.08 154.51 104.13 155.84"/><polygon class="e" points="95.11 162.11 95.11 156.59 91.4 152.58 95.96 156.51 95.11 162.11"/><polygon class="e" points="106 157.44 106.45 154.66 101.4 153.47 100.67 151.73 101.68 153.13 107.42 154.43 106 157.44"/><polygon class="e" points="78.7 158.25 77.59 156.18 79.01 154.59 76.83 155.98 78.7 158.25"/><polygon class="f" points="91.4 152.58 95.96 156.51 95.11 162.11 96.53 156.42 91.4 152.58"/><polygon class="f" points="79.01 154.59 77.59 156.18 78.7 158.25 77.92 156.03 79.01 154.59"/><polygon class="f" points="100.67 151.73 101.4 153.47 106.45 154.66 106 157.44 106.22 154.81 101.09 153.74 100.67 151.73"/><polygon class="b" points="234.17 186.46 225 195.48 229.59 204.68 250.1 205.96 265.5 196.48 265.5 193.55 234.17 186.46"/><polygon class="c" points="392.62 161.99 395.88 170.24 410.89 173.94 422.72 169.87 427.77 160.66 428.12 156.51 427.24 155.95 419.18 150.84 407.92 151.23 392.62 161.99"/><polygon class="g" points="392.62 161.99 403.25 162.44 417.77 161.03 427.04 156.71 427.24 155.95 419.18 150.84 407.92 151.23 392.62 161.99"/><polygon class="d" points="428.08 156.96 417.92 161.82 403.71 162.98 405.01 167.98 402.36 163.02 392.89 162.67 395.88 170.24 410.89 173.94 422.72 169.87 427.77 160.66 428.08 156.96"/><polygon class="d" points="417.92 161.82 410.89 173.94 422.72 169.87 427.77 160.66 428.08 156.96 417.92 161.82"/><polygon class="d" points="398.98 162.89 401.96 171.73 395.88 170.24 392.89 162.67 398.98 162.89"/><polygon class="e" points="408.99 167.4 407.98 161.98 410.9 157.36 407.13 162.06 408.99 167.4"/><polygon class="e" points="397.43 164.81 396.48 162.15 401.23 160.07 401.63 158.22 400.89 159.78 395.48 162.11 397.43 164.81"/><polygon class="e" points="424.42 160.61 425.13 158.37 423.44 157.06 425.84 158.03 424.42 160.61"/><polygon class="f" points="410.9 157.36 407.13 162.06 408.99 167.4 406.56 162.07 410.9 157.36"/><polygon class="f" points="423.44 157.06 425.13 158.37 424.42 160.61 424.78 158.28 423.44 157.06"/><polygon class="f" points="401.63 158.22 401.23 160.07 396.48 162.15 397.43 164.81 396.74 162.26 401.58 160.28 401.63 158.22"/><polygon class="b" points="0 64.02 14.63 68.77 31.1 65.82 46.5 80.98 44.75 84.2 26.31 95.18 0 94.14 0 64.02"/><polygon class="c" points="249.02 194.74 248.21 198.88 241.51 201.92 235.63 201.05 232.46 197.18 231.94 195.27 232.3 194.93 235.63 191.84 240.93 191.04 249.02 194.74"/><polygon class="g" points="249.02 194.74 244.09 195.88 237.17 196.48 232.46 195.27 232.3 194.93 235.63 191.84 240.93 191.04 249.02 194.74"/><polygon class="d" points="231.99 195.48 237.17 196.87 243.92 196.17 243.75 198.62 244.56 196.07 248.96 195.09 248.21 198.88 241.51 201.92 235.63 201.05 232.46 197.18 231.99 195.48"/><polygon class="d" points="237.17 196.87 241.51 201.92 235.63 201.05 232.46 197.18 231.99 195.48 237.17 196.87"/><polygon class="d" points="246.13 195.72 245.5 200.11 248.21 198.88 248.96 195.09 246.13 195.72"/><polygon class="e" points="241.83 198.7 241.83 196.08 240.07 194.17 242.24 196.04 241.83 198.7"/><polygon class="e" points="247.02 196.48 247.23 195.16 244.83 194.59 244.48 193.76 244.96 194.43 247.69 195.05 247.02 196.48"/><polygon class="e" points="234.03 196.87 233.5 195.88 234.17 195.12 233.13 195.78 234.03 196.87"/><polygon class="f" points="240.07 194.17 242.24 196.04 241.83 198.7 242.51 195.99 240.07 194.17"/><polygon class="f" points="234.17 195.12 233.5 195.88 234.03 196.87 233.65 195.81 234.17 195.12"/><polygon class="f" points="244.48 193.76 244.83 194.59 247.23 195.16 247.02 196.48 247.12 195.23 244.68 194.72 244.48 193.76"/><polygon class="c" points="34.04 77.02 33.23 81.17 26.53 84.2 20.64 83.33 17.48 79.46 16.96 77.55 17.32 77.21 20.64 74.12 25.95 73.32 34.04 77.02"/><polygon class="g" points="34.04 77.02 29.11 78.16 22.19 78.76 17.48 77.55 17.32 77.21 20.64 74.12 25.95 73.32 34.04 77.02"/><polygon class="d" points="17.01 77.76 22.19 79.15 28.94 78.45 28.77 80.9 29.58 78.35 33.97 77.37 33.23 81.17 26.53 84.2 20.64 83.33 17.48 79.46 17.01 77.76"/><polygon class="d" points="22.19 79.15 26.53 84.2 20.64 83.33 17.48 79.46 17.01 77.76 22.19 79.15"/><polygon class="d" points="31.14 78 30.52 82.39 33.23 81.17 33.97 77.37 31.14 78"/><polygon class="e" points="26.85 80.98 26.85 78.36 25.09 76.45 27.26 78.32 26.85 80.98"/><polygon class="e" points="32.04 78.76 32.25 77.44 29.85 76.87 29.5 76.04 29.98 76.71 32.71 77.33 32.04 78.76"/><polygon class="e" points="19.05 79.15 18.52 78.16 19.19 77.4 18.15 78.06 19.05 79.15"/><polygon class="f" points="25.09 76.45 27.26 78.32 26.85 80.98 27.53 78.27 25.09 76.45"/><polygon class="f" points="19.19 77.4 18.52 78.16 19.05 79.15 18.67 78.09 19.19 77.4"/><polygon class="f" points="29.5 76.04 29.85 76.87 32.25 77.44 32.04 78.76 32.14 77.51 29.7 77 29.5 76.04"/><polygon class="c" points="457.63 86.91 456.82 91.05 450.12 94.09 444.23 93.22 441.06 89.35 440.54 87.44 440.91 87.1 444.23 84.01 449.53 83.21 457.63 86.91"/><polygon class="g" points="457.63 86.91 452.69 88.05 445.77 88.65 441.06 87.44 440.91 87.1 444.23 84.01 449.53 83.21 457.63 86.91"/><polygon class="d" points="440.6 87.65 445.77 89.03 452.52 88.34 452.35 90.79 453.16 88.24 457.56 87.25 456.82 91.05 450.12 94.09 444.23 93.22 441.06 89.35 440.6 87.65"/><polygon class="d" points="445.77 89.03 450.12 94.09 444.23 93.22 441.06 89.35 440.6 87.65 445.77 89.03"/><polygon class="d" points="454.73 87.89 454.11 92.28 456.82 91.05 457.56 87.25 454.73 87.89"/><polygon class="e" points="450.44 90.87 450.44 88.25 448.67 86.34 450.84 88.21 450.44 90.87"/><polygon class="e" points="455.62 88.65 455.83 87.33 453.43 86.76 453.08 85.93 453.56 86.6 456.3 87.22 455.62 88.65"/><polygon class="e" points="442.63 89.03 442.1 88.05 442.78 87.29 441.74 87.95 442.63 89.03"/><polygon class="f" points="448.67 86.34 450.84 88.21 450.44 90.87 451.11 88.16 448.67 86.34"/><polygon class="f" points="442.78 87.29 442.1 88.05 442.63 89.03 442.26 87.98 442.78 87.29"/><polygon class="f" points="453.08 85.93 453.43 86.76 455.83 87.33 455.62 88.65 455.72 87.4 453.28 86.89 453.08 85.93"/><polygon class="c" points="92.65 197.04 94.8 185.71 115.68 172.67 166.32 187.8 168.33 196.76 161.16 207.05 106.05 209.46 92.65 197.04"/><polygon class="g" points="94.8 185.71 95.68 194.39 139.88 198.93 167.99 195.25 166.32 187.8 115.68 172.67 94.8 185.71"/><polygon class="d" points="94.8 185.71 94.8 196.01 139.66 200.72 168.33 196.76 161.16 207.05 106.05 209.46 92.65 197.04 94.8 185.71"/><polygon class="d" points="139.66 200.72 106.05 209.46 161.16 207.05 168.33 196.76 139.66 200.72"/><polygon class="e" points="104.71 203.11 106.87 196.09 111.8 190.49 106.05 195.45 104.71 203.11"/><polygon class="e" points="159.48 201.62 160.38 197.58 151.64 191.76 150.24 188.45 152.59 191.48 162.34 196.8 159.48 201.62"/><polygon class="f" points="104.71 203.11 106.05 195.45 111.8 190.49 104.71 195.32 104.71 203.11"/><polygon class="f" points="150.24 188.45 152.59 191.48 162.34 196.8 159.48 201.62 163.52 196.76 153.07 191.32 150.24 188.45"/><polygon class="g" points="94.8 185.71 122.97 179.66 151.58 183.39 115.68 172.67 94.8 185.71"/><polygon class="c" points="487.35 177.43 482.96 166.77 459.89 158.19 413.33 183.19 413.16 192.38 422.25 201.01 476.72 192.29 487.35 177.43"/><polygon class="g" points="482.96 166.77 483.86 175.44 441.47 188.78 413.19 190.84 413.33 183.19 459.89 158.19 482.96 166.77"/><polygon class="d" points="482.96 166.77 485.04 176.86 442.05 190.49 413.16 192.38 422.25 201.01 476.72 192.29 487.35 177.43 482.96 166.77"/><polygon class="d" points="442.05 190.49 476.72 192.29 422.25 201.01 413.16 192.38 442.05 190.49"/><polygon class="e" points="476.76 185.8 473.23 179.36 467.28 174.87 473.91 178.57 476.76 185.8"/><polygon class="e" points="422.81 195.36 421.12 191.59 428.5 184.12 429.21 180.61 427.51 184.04 419.04 191.21 422.81 195.36"/><polygon class="f" points="476.76 185.8 473.91 178.57 467.28 174.87 475.2 178.17 476.76 185.8"/><polygon class="f" points="429.21 180.61 427.51 184.04 419.04 191.21 422.81 195.36 417.88 191.41 427.02 183.98 429.21 180.61"/><polygon class="g" points="482.96 166.77 454.16 166.51 426.88 175.92 459.89 158.19 482.96 166.77"/><polygon class="b" points="168.95 165.55 169.68 141.45 158.42 143.28 149.29 128.88 132.4 133.58 123.19 146.93 123.88 162.74 141.2 172.67 165 171.46 168.95 165.55"/><path class="b" d="M216.68,73.44l7.8-9.8L215,48.91l-20-8.58-30.18-7.89H130.6L94.22,53.77,82.08,79.55l9.3,19.51,45.79,4.11s26.74-27.8,28.89-27.8S186,70,186,70Z"/><path class="h" d="M204,59c-1.84,1.61-3.74,2.45-4.25,1.87s.57-2.37,2.41-4,3.74-2.45,4.25-1.87S205.83,57.41,204,59Z"/><polygon class="i" points="199.82 60.96 194.5 55.51 200.29 48.91 206.41 55.17 199.82 60.96"/><polygon class="j" points="202.03 50.69 206.07 49.39 206.76 52.53 205.09 53.82 198.64 59.75 196.92 58.74 195.99 57.03 202.03 50.69"/><path class="k" d="M200.29,48.91l-1.43,1.54,1.77,1.71A12.12,12.12,0,0,1,199,57.58c4.23-2.71,7.12-8.19,7.12-8.19l-4,1.3Z"/><path class="l" d="M206.07,49.39a35.58,35.58,0,0,1-4.83,6.46,10.48,10.48,0,0,1-3.89,2.46l-1.16-1.7-1.84-1.26L196,57l.94,1.71,1.72,1L199.83,61s1.57.63,4.1-1.84c3-3,2.48-3.95,2.48-3.95l-1.32-1.35,1.67-1.29Z"/><path class="m" d="M198.46,53.14c-1.59,1.86-3.35,3-3.94,2.47s.22-2.42,1.81-4.29,3.35-3,3.94-2.46S200,51.28,198.46,53.14Z"/><path class="n" d="M198.21,53.3c-1.31,1.54-2.77,2.45-3.25,2s.18-2,1.49-3.54,2.77-2.45,3.25-2S199.52,51.76,198.21,53.3Z"/><path class="o" d="M216.49,67.21c-1.73,1.73-3.57,2.7-4.12,2.15s.41-2.39,2.13-4.13,3.57-2.7,4.12-2.15S218.22,65.47,216.49,67.21Z"/><polygon class="p" points="212.46 69.42 206.78 64.35 212.1 57.36 218.63 63.2 212.46 69.42"/><polygon class="q" points="213.96 59.02 217.9 57.45 218.81 60.54 217.22 61.94 211.2 68.29 209.41 67.41 208.36 65.76 213.96 59.02"/><path class="k" d="M212.1,57.36,210.79,59l1.87,1.58a12,12,0,0,1-1.31,5.52c4-3,6.55-8.66,6.55-8.66L214,59Z"/><path class="l" d="M217.9,57.45a35.46,35.46,0,0,1-4.38,6.78,10.62,10.62,0,0,1-3.7,2.72l-1.28-1.62-1.93-1.13,1.75,1.56,1,1.65,1.79.88,1.26,1.13s1.61.52,4-2.12c2.83-3.17,2.2-4.1,2.2-4.1l-1.41-1.26,1.58-1.4Z"/><path class="m" d="M210.56,61.71c-1.45,2-3.14,3.19-3.76,2.73s.06-2.42,1.51-4.39,3.14-3.19,3.76-2.73S212,59.75,210.56,61.71Z"/><path class="n" d="M210.33,61.89c-1.2,1.63-2.6,2.64-3.11,2.26s.05-2,1.25-3.63,2.59-2.64,3.1-2.26S211.53,60.27,210.33,61.89Z"/><path class="r" d="M195.46,53.61c-1.25,2.11-2.8,3.5-3.47,3.1s-.19-2.42,1.06-4.53,2.8-3.49,3.47-3.09S196.71,51.51,195.46,53.61Z"/><polygon class="s" points="192.1 56.75 185.35 53.22 188.8 45.14 196.56 49.2 192.1 56.75"/><polygon class="t" points="191.01 46.3 194.44 43.81 196.07 46.58 194.88 48.32 190.59 55.96 188.64 55.54 187.22 54.2 191.01 46.3"/><path class="k" d="M188.8,45.14l-.88,1.92,2.21,1.07a12,12,0,0,1,.08,5.68c3.19-3.89,4.23-10,4.23-10L191,46.3Z"/><path class="l" d="M194.44,43.81a35.85,35.85,0,0,1-2.58,7.64A10.57,10.57,0,0,1,188.92,55l-1.63-1.27-2.14-.62,2.07,1.09,1.42,1.34,2,.42,1.51.79s1.69.11,3.33-3c2-3.76,1.13-4.52,1.13-4.52l-1.68-.88,1.19-1.74Z"/><path class="m" d="M188.37,49.74c-.93,2.26-2.26,3.86-3,3.56s-.54-2.37.39-4.63,2.26-3.86,3-3.57S189.3,47.47,188.37,49.74Z"/><path class="n" d="M188.18,50c-.76,1.87-1.87,3.18-2.46,2.94s-.44-1.95.33-3.82,1.86-3.19,2.46-3S189,48.1,188.18,50Z"/><path class="u" d="M95.41,89.45c-3.58-1,59.34-35.05,59.34-35.05l5.93,2.69s-28.12,23.74-41,28.33A70.3,70.3,0,0,1,95.41,89.45Z"/><path class="m" d="M105.2,60.92s4.32-.56,4.67,2.25-2.36,5.32-2.36,5.32l10.58-1.76L116.63,54.9l-7,.87Z"/><path class="m" d="M136.37,46.08s5.45.27,7.07,3.47-3.14,10.61-3.14,10.61l5-.62,10-8.53-6.24-6.51-9.62-1Z"/><path class="u" d="M148.53,39.47S137,38.68,134.12,39,92.46,58.12,91.38,78.22a64.5,64.5,0,0,1,23.39-23.09A317.54,317.54,0,0,1,148.53,39.47Z"/><path class="m" d="M150.67,66.48s4.09-1.87,7.35-1.36,3.38,2.39,3.38,2.39l5.54-5.93-6.2-3.95-7,5.15Z"/><path class="v" d="M148.53,39.47l-6.11.76S120,48,104.26,61.58c-1,.88-2,1.8-3,2.74a42.64,42.64,0,0,0-9.9,13.9A177.28,177.28,0,0,0,116,77.14c14.59-1.56,40.06-21.51,40.06-21.51l7,3.32s1.2-1,.63-5.66ZM105.76,67.82c-2.64.29-4.85.28-4.9-.12-.29-2.31,5.44-7.76,9.66-8.84h.26c4.15.36,3.93,4.71,2.38,6.71-.77,1-4.11,1.79-7.31,2.23ZM143,59.08a4.92,4.92,0,0,1-.77,0c-4.54-.2-11.27-6.32-7.68-10,1.88-1.92,5.2-3.32,8.37-3.84s6.4-.14,7.63,1.6C152,49,147.48,58.52,143,59.08Z"/><path class="w" d="M163.84,56.5l-4.23.79s-23.5,21.89-64.2,32.16c0,0,23.74,7.2,28.91,6.56S175,60.18,174.7,58.11C174.54,56.87,163.84,56.5,163.84,56.5Zm-30.4,30.32c-1.95-2.26,19.89-22.56,25.57-26.31,1.47.23,4.08,1.65,4,3.18,0,1-21.61,19.73-28.94,23.29A.74.74,0,0,1,133.44,86.82Z"/><path class="u" d="M143,59.08a4.92,4.92,0,0,1-.77,0c4.25-1.34,8.27-10,6.86-12-1-1.48-3.46-2-6.17-1.78,3.28-.54,6.4-.14,7.63,1.6C152,49,147.48,58.52,143,59.08Z"/><path class="k" d="M142.22,59.1a4.18,4.18,0,0,1-.68.16c-4.48.55-12.26-6.09-8.46-10,2.17-2.21,6.26-3.74,9.83-4-3.17.52-6.49,1.92-8.37,3.84C131,52.78,137.68,58.9,142.22,59.1Z"/><path class="u" d="M164.66,63.12c0,1.16-25.76,23.32-30.57,23.86C141.42,83.42,163,64.74,163,63.69c.06-1.53-2.55-2.95-4-3.18a3.18,3.18,0,0,1,1.18-.6C161.51,59.87,164.72,61.42,164.66,63.12Z"/><path class="k" d="M133.44,86.82a.74.74,0,0,0,.65.16c-1.18.56-2,.75-2.29.4-2.14-2.48,24.56-26.84,26.76-26.91a2.57,2.57,0,0,1,.45,0C153.33,64.26,131.49,84.56,133.44,86.82Z"/><path class="u" d="M114.59,65.4c-.89,1.14-5.18,2-8.74,2.41,3.2-.44,6.54-1.25,7.31-2.23,1.55-2,1.77-6.35-2.38-6.71h-.26a5.58,5.58,0,0,1,1.68-.17C116.36,59.05,116.14,63.41,114.59,65.4Z"/><path class="k" d="M105.76,67.82c-3.22.45-6.27.53-6.33.05-.11-.87.64-2.2,1.85-3.55a20.28,20.28,0,0,1,3-2.74c2.09-1.57,4.46-2.75,6.26-2.72-4.22,1.08-10,6.53-9.66,8.84C100.91,68.1,103.12,68.11,105.76,67.82Z"/><polygon class="x" points="108.07 85.73 107.2 78.75 110.89 84.75 108.07 85.73"/><polygon class="x" points="98.92 88.89 97.76 79.55 102.69 87.44 98.92 88.89"/><path class="x" d="M116,82.86l.23-4.56,1.71,2.06.94-2.39,3.61,1,3.27-3h5.63S119.06,82.48,116,82.86Z"/><polygon class="x" points="100.65 78.2 104.77 84.9 103.42 78.1 100.65 78.2"/><polygon class="x" points="93.34 78.27 97.73 88.13 96.51 78.28 93.34 78.27"/><polygon class="m" points="131.34 75.94 126.32 75.37 125.71 75.94 131.34 75.94"/><polygon class="m" points="118.83 77.97 119.76 77.86 122.85 78.56 122.44 78.93 118.83 77.97"/><polygon class="m" points="116.18 78.3 116.67 78.24 118.13 79.74 117.89 80.36 116.18 78.3"/><polygon class="m" points="107.2 78.75 107.81 78.67 112.29 84.25 110.89 84.75 107.2 78.75"/><polygon class="m" points="104.77 84.9 105.14 84.58 104.13 78.06 103.42 78.1 104.77 84.9"/><polygon class="m" points="97.76 79.55 98.41 79.69 103.28 87.26 102.69 87.44 97.76 79.55"/><polygon class="m" points="97.73 88.13 98.02 88.02 96.95 78.28 96.51 78.28 97.73 88.13"/><polygon class="c" points="131.18 71.78 134.26 69.63 133.48 64.38 130.34 62.44 133.88 64.33 134.93 69.13 136.81 68.68 131.18 71.78"/><polygon class="c" points="146.12 81.68 145.59 80.46 146.54 81.37 146.12 81.68"/><polygon class="c" points="170.38 56.96 169.78 59.89 165.88 64.15 170.78 60.22 171.25 57.06 170.38 56.96"/><polygon class="c" points="115.25 49.05 128.04 46.38 129.4 49.1 128.71 46.05 116.22 48.41 115.25 49.05"/><polygon class="k" points="130.34 62.44 133.88 64.33 134.93 69.13 136.81 68.68 135.15 68.66 134.2 63.91 130.34 62.44"/><polygon class="k" points="116.22 48.41 129.53 45.65 129.4 49.1 128.71 46.05 116.22 48.41"/><polygon class="k" points="170.38 56.96 169.78 59.89 165.88 64.15 169.33 59.53 169.66 56.88 170.38 56.96"/><path class="k" d="M101.34,90s20.46,5.63,23.11,5.19,11.89-7.31,11.89-7.31-9,5.83-12,6.19-19.65-5.92-19.65-5.92Z"/><polygon class="y" points="142.07 65.47 151.78 63.52 159.61 57.29 156.1 55.63 142.07 65.47"/><path class="z" d="M185.88,49.14c-.44,2.67-1.47,4.73-2.32,4.59s-1.17-2.41-.74-5.08,1.47-4.73,2.31-4.59S186.31,46.47,185.88,49.14Z"/><polygon class="aa" points="183.68 53.73 175.31 52.82 175.6 43.12 185.22 44.16 183.68 53.73"/><polygon class="ab" points="178.34 43.41 180.86 39.47 183.67 41.66 183.15 43.93 181.82 53.52 179.64 53.88 177.64 53.07 178.34 43.41"/><path class="k" d="M175.6,43.12l-.13,2.32,2.71.22a13.21,13.21,0,0,1,2.37,5.8c1.71-5.29.31-12,.31-12l-2.52,3.94Z"/><path class="l" d="M180.86,39.47a39.16,39.16,0,0,1,.43,8.9,11.62,11.62,0,0,1-1.58,4.84l-2.19-.64-2.46.22,2.58.28,2,.81,2.18-.36,1.86.21s1.78-.57,2.21-4.47c.5-4.66-.67-5.1-.67-5.1l-2.07-.23.52-2.27Z"/><path class="m" d="M177,48c0,2.7-.77,4.89-1.62,4.87s-1.51-2.22-1.47-4.92.77-4.89,1.62-4.88S177.06,45.31,177,48Z"/><path class="n" d="M176.92,48.33c0,2.23-.64,4-1.35,4s-1.25-1.83-1.21-4.06.64-4,1.34-4S177,46.1,176.92,48.33Z"/><path class="ac" d="M175.54,47.49c.19,2.7-.35,4.94-1.2,5s-1.7-2.08-1.89-4.78.35-4.94,1.2-5S175.35,44.79,175.54,47.49Z"/><polygon class="ad" points="174.45 52.46 166.09 53.49 164.16 43.98 173.76 42.79 174.45 52.46"/><polygon class="ae" points="166.89 43.64 168.45 39.22 171.68 40.71 171.69 43.05 172.59 52.69 170.55 53.53 168.42 53.2 166.89 43.64"/><path class="k" d="M164.16,44l.4,2.29,2.69-.41A13.32,13.32,0,0,1,170.89,51c.45-5.54-2.44-11.75-2.44-11.75l-1.56,4.42Z"/><path class="l" d="M168.45,39.22a39.29,39.29,0,0,1,2.45,8.57,11.6,11.6,0,0,1-.43,5.07l-2.28-.12-2.34.78,2.57-.32,2.13.33,2-.84,1.86-.23s1.61-1,1.13-4.85c-.58-4.66-1.82-4.82-1.82-4.82l-2.07.26V40.71Z"/><path class="m" d="M166.66,48.43c.57,2.64.36,4.93-.47,5.11s-2-1.81-2.56-4.45-.37-4.94.47-5.12S166.08,45.78,166.66,48.43Z"/><path class="n" d="M166.63,48.75c.48,2.18.31,4.08-.38,4.23s-1.64-1.5-2.12-3.68-.3-4.08.39-4.23S166.15,46.57,166.63,48.75Z"/><polygon class="b" points="430.4 79.95 435.08 71.35 433.62 54.02 426.28 45.95 442.9 35.24 440.17 33.57 422.67 31.77 428.26 19.26 416.18 0.73 397.33 0 388.51 5.61 365.51 11.67 353.32 28.7 336.59 42.4 342.54 56.58 358.17 51.74 364.74 64.93 386.22 65.59 406.67 82.19 421.02 82.41 430.4 79.95"/><path class="u" d="M414.55,30.24,414,30l-.26-.12L412,29.09l-4.26-1.91-4.42-10.95-.12-.31-.48-.52-7.24-7.9.71-5c5.24-.45,11-.68,13.09-.19a3.1,3.1,0,0,1,.36.1c2.24.82,12.62,14.49,13.06,16.62C423,20.21,418.72,25.43,414.55,30.24Z"/><path class="af" d="M420.37,22.17h0c-1.56,2.19-4,5.07-6.34,7.81l-.26-.12L412,29.09l-4.26-1.91-4.42-10.95-.12-.31-.48-.52-7.24-7.9.71-5,0-.25c.32,0,.64-.06,1-.08,2.23-.17,4.48-.28,6.43-.32,1.26,0,2.4,0,3.34,0a8.52,8.52,0,0,1,2.11.32l.2.1a22.84,22.84,0,0,1,4.15,4.18c2.12,2.51,4.51,5.65,6.26,8.17.68,1,1.26,1.87,1.69,2.59a6.32,6.32,0,0,1,.75,1.57C422.25,19.33,421.54,20.56,420.37,22.17Z"/><path class="u" d="M402.73,15.4c.74-4,1.29-7.42,1.42-8.29-.09.91-.5,4.69-.82,9.12l-.12-.31Z"/><path class="u" d="M420.39,22.17h0l-6.6,7.69L412,29.09c4-3.06,8.07-6.66,8.36-6.92Z"/><path class="u" d="M417.47,16.59a5.44,5.44,0,0,1-4.63-9.85l.6-.24c2.12,2.5,4.51,5.64,6.26,8.16h0A5.51,5.51,0,0,1,417.47,16.59Z"/><path class="u" d="M416.83,20.66a.72.72,0,0,1-1-.35.73.73,0,1,1,1.32-.62A.72.72,0,0,1,416.83,20.66Z"/><path class="ag" d="M345.53,47.55c.81,1.2,1.78,2,2.16,1.71s0-1.44-.78-2.64-1.78-2-2.16-1.72S344.72,46.34,345.53,47.55Z"/><polygon class="ah" points="347.63 49.29 351.51 46.97 349.19 42.3 344.73 44.97 347.63 49.29"/><polygon class="ai" points="347.92 43.06 345.81 41.7 344.93 43.4 345.69 44.39 348.5 48.77 349.64 48.45 350.43 47.61 347.92 43.06"/><path class="k" d="M349.19,42.3l.59,1.1-1.27.72a7.11,7.11,0,0,0,.14,3.36,14.71,14.71,0,0,1-2.84-5.78l2.11,1.36Z"/><path class="l" d="M345.81,41.7a20.87,20.87,0,0,0,1.79,4.44,6.24,6.24,0,0,0,1.85,2l.93-.8,1.25-.44-1.2.71-.79.84-1.14.32-.87.52s-1,.12-2.07-1.68c-1.3-2.17-.83-2.64-.83-2.64l1-.58-.77-1Z"/><path class="m" d="M349.6,45c.63,1.31,1.48,2.21,1.89,2s.24-1.42-.39-2.73-1.47-2.21-1.88-2S349,43.7,349.6,45Z"/><path class="n" d="M349.72,45.14c.52,1.08,1.22,1.82,1.56,1.66s.2-1.17-.32-2.26-1.22-1.82-1.56-1.66S349.2,44.06,349.72,45.14Z"/><path class="aj" d="M354.75,41.6c.5,1.37,1.25,2.35,1.68,2.19s.38-1.39-.11-2.75-1.24-2.35-1.67-2.2S354.26,40.23,354.75,41.6Z"/><polygon class="ak" points="356.36 43.8 360.69 42.5 359.58 37.41 354.61 38.91 356.36 43.8"/><polygon class="al" points="358.17 37.83 356.45 36 355.18 37.43 355.68 38.58 357.33 43.51 358.51 43.49 359.49 42.86 358.17 37.83"/><path class="k" d="M359.59,37.41l.29,1.21-1.4.38a7.12,7.12,0,0,0-.69,3.3,14.77,14.77,0,0,1-1.34-6.3l1.72,1.83Z"/><path class="l" d="M356.45,36a20.67,20.67,0,0,0,.65,4.74,6.37,6.37,0,0,0,1.31,2.4l1.09-.55,1.32-.13-1.33.4-1,.63-1.18,0-1,.29s-1-.12-1.6-2.14c-.72-2.41-.15-2.76-.15-2.76l1.07-.32-.5-1.15Z"/><path class="m" d="M359.32,40.13c.29,1.43.89,2.51,1.34,2.42s.58-1.32.29-2.75-.89-2.5-1.34-2.41S359,38.71,359.32,40.13Z"/><path class="n" d="M359.4,40.29c.24,1.17.74,2.07,1.11,2s.48-1.09.24-2.26-.73-2.07-1.1-2S359.17,39.11,359.4,40.29Z"/><path class="u" d="M428.58,77.49c2.2-.19-30.67-27.08-30.67-27.08l-3.76.9s13.74,17,20.74,21.11A41.6,41.6,0,0,0,428.58,77.49Z"/><path class="m" d="M425.41,61s-3.56-1.18-4.31,1.15S422.22,67,422.22,67l-8.66-3.21L416.72,54l5.8,1.88Z"/><path class="m" d="M409.56,47.61s-3.21-.45-4.51,1.24.64,6.53.64,6.53l-2.87-.92-4.9-6.1,4.36-3.1,5.72.48Z"/><path class="u" d="M403.21,42.4s6.81.83,8.45,1.36,22.15,15.79,20.53,27.63a38.39,38.39,0,0,0-11.05-16.08A188.85,188.85,0,0,0,403.21,42.4Z"/><path class="m" d="M398.93,57.91a9.25,9.25,0,0,0-4.13-1.62c-1.95-.07-2.23,1-2.23,1L390,53.23l4.05-1.61,3.53,3.79Z"/><path class="am" d="M403.21,42.4l3.48,1.13s12.22,7,19.85,16.72c.5.63,1,1.27,1.43,1.93a25.37,25.37,0,0,1,4.22,9.21A105.65,105.65,0,0,1,417.93,68C409.6,65.46,397,51,397,51l-4.44,1.15s-.58-.74.27-3.36Zm20.44,24.81c2.74.83,5.09,1.28,5.22.86.78-2.39-4.19-9.34-8.45-11.33l-.27-.05c-4.47-.47-5.13,4.2-3.89,6.63.62,1.2,4,2.73,7.29,3.86ZM404.24,54.45a2.11,2.11,0,0,0,.45.1c2.67.39,7.28-2.42,5.59-5a9.4,9.4,0,0,0-4.45-3.17c-1.84-.69-3.71-.8-4.62.08C400.1,47.57,401.69,53.63,404.24,54.45Z"/><path class="an" d="M392.37,50.61l2.38.94S406,66.94,428.58,77.49c0,0-14.65,1.53-17.59.58s-25.51-26.55-25.12-27.73C386.09,49.63,392.37,50.61,392.37,50.61ZM406.7,71.69c1.4-1.09-9.07-15.38-12-18.2-.88,0-2.56.5-2.69,1.41-.1.61,10.38,13.92,14.26,16.81A.4.4,0,0,0,406.7,71.69Z"/><path class="u" d="M404.24,54.45a2.11,2.11,0,0,0,.45.1c-2.33-1.26-3.7-6.77-2.65-7.78.77-.75,2.24-.78,3.79-.35-1.84-.69-3.71-.8-4.62.08C400.1,47.57,401.69,53.63,404.24,54.45Z"/><path class="k" d="M404.69,54.55a1.84,1.84,0,0,0,.38.17c2.55.82,7.82-2.18,6-4.86a9.83,9.83,0,0,0-5.28-3.44,9.4,9.4,0,0,1,4.45,3.17C412,52.13,407.36,54.94,404.69,54.55Z"/><path class="u" d="M391.16,54.38c-.11.68,12.4,16.48,15.15,17.33-3.88-2.89-14.36-16.2-14.26-16.81.13-.91,1.81-1.44,2.69-1.41a1.74,1.74,0,0,0-.62-.48C393.36,52.84,391.31,53.38,391.16,54.38Z"/><path class="k" d="M406.7,71.69a.4.4,0,0,1-.39,0c.62.47,1.07.66,1.28.5C409.12,71,396.29,53.8,395,53.52a2,2,0,0,0-.27,0C397.63,56.31,408.1,70.6,406.7,71.69Z"/><path class="u" d="M414.66,62.73c.71,1.39,5.11,3.22,8.82,4.36-3.31-1.13-6.72-2.68-7.33-3.88-1.25-2.45-.59-7.15,3.91-6.67a1.1,1.1,0,0,1,.27,0,5.34,5.34,0,0,0-1.75-.52C414.07,55.58,413.41,60.28,414.66,62.73Z"/><path class="k" d="M423.58,67.12c3.34,1.13,6.58,1.84,6.74,1.35.3-.91-.23-2.48-1.24-4.17a22,22,0,0,0-2.62-3.54c-1.91-2.09-4.19-3.85-6.13-4.18,4.29,2,9.29,9,8.51,11.41C428.7,68.41,426.34,68,423.58,67.12Z"/><polygon class="x" points="421.62 73.9 422.9 69.93 420.08 73.02 421.62 73.9"/><polygon class="x" points="426.6 76.77 428.32 71.45 424.56 75.5 426.6 76.77"/><path class="x" d="M417.34,71.35l.38-2.69-1.23,1-.28-1.5-2.21.16-1.58-2.11-3.27-.63S415.57,70.77,417.34,71.35Z"/><polygon class="x" points="426.78 70.34 423.63 73.79 425.18 69.97 426.78 70.34"/><polygon class="x" points="431.04 71.2 427.38 76.46 429.19 70.85 431.04 71.2"/><polygon class="m" points="409.15 65.59 412.14 65.82 412.43 66.22 409.15 65.59"/><polygon class="m" points="416.21 68.17 415.68 68 413.8 68.06 414 68.33 416.21 68.17"/><polygon class="m" points="417.72 68.66 417.44 68.57 416.42 69.28 416.49 69.67 417.72 68.66"/><polygon class="m" points="422.9 69.93 422.56 69.81 419.32 72.56 420.08 73.02 422.9 69.93"/><polygon class="m" points="423.63 73.79 423.45 73.56 424.77 69.87 425.18 69.97 423.63 73.79"/><polygon class="m" points="428.32 71.45 427.92 71.46 424.24 75.33 424.56 75.5 428.32 71.45"/><polygon class="m" points="427.38 76.46 427.22 76.36 428.93 70.8 429.19 70.85 427.38 76.46"/><polygon class="c" points="409.71 63.18 408.15 61.58 409.19 58.61 411.24 57.83 408.96 58.53 407.82 61.22 406.77 60.74 409.71 63.18"/><polygon class="c" points="399.89 67.28 400.33 66.63 399.68 67.05 399.89 67.28"/><polygon class="c" points="388.51 50.15 388.54 51.92 390.33 54.84 387.91 52 387.99 50.11 388.51 50.15"/><polygon class="c" points="421.54 51.71 414.38 48.72 413.28 50.16 414.03 48.46 421.04 51.23 421.54 51.71"/><polygon class="k" points="411.24 57.83 408.96 58.53 407.82 61.22 406.77 60.74 407.74 60.92 408.83 58.26 411.24 57.83"/><polygon class="k" points="421.04 51.23 413.59 48.13 413.28 50.16 414.03 48.46 421.04 51.23"/><polygon class="k" points="388.51 50.15 388.54 51.92 390.33 54.84 388.84 51.76 388.94 50.18 388.51 50.15"/><path class="k" d="M425.06,77.16s-12.56,1-14.06.44S404.89,72,404.89,72s4.62,4.4,6.32,4.95,12.12-1.25,12.12-1.25Z"/><polygon class="y" points="404.06 58.28 398.62 56.05 394.75 51.55 396.98 50.98 404.06 58.28"/><path class="ao" d="M386.56,44.05c-.41,1.55-.34,2.92.15,3.05s1.22-1,1.63-2.58.35-2.91-.14-3S387,42.5,386.56,44.05Z"/><polygon class="ap" points="386.64 47.07 391.4 48.61 393.59 43.28 388.13 41.51 386.64 47.07"/><polygon class="aq" points="392.04 42.77 391.63 40.02 389.58 40.53 389.31 41.89 387.7 47.41 388.8 48.13 390.07 48.18 392.04 42.77"/><path class="k" d="M393.59,43.28l-.49,1.29L391.58,44a7.94,7.94,0,0,0-2.7,2.57A16.38,16.38,0,0,1,391.63,40l.41,2.75Z"/><path class="l" d="M391.63,40a23.52,23.52,0,0,0-2.4,4.73,6.88,6.88,0,0,0-.31,3l1.34.18,1.28.72-1.46-.47-1.28,0-1.1-.72-1.06-.34s-.83-.74-.11-3c.86-2.65,1.6-2.6,1.6-2.6l1.18.38.27-1.36Z"/><path class="m" d="M391.64,45.59c-.63,1.48-.77,2.84-.3,3s1.36-.84,2-2.32.77-2.83.3-3S392.27,44.11,391.64,45.59Z"/><path class="n" d="M391.62,45.78c-.53,1.22-.64,2.34-.25,2.51s1.12-.69,1.64-1.91.64-2.34.25-2.5S392.14,44.56,391.62,45.78Z"/><path class="u" d="M404.86,42.22,393.68,52.58s-18.86,5.55-20.48,4.73a26.65,26.65,0,0,1-4.14-3.92l4.23-2.25-1.69-3,2.08-.92.08-2.54,4.49-3.49L374,42.82,370,38.88l-2.45-.08-1.41-5.69-4.42-2.71c3.59-6.25,8.87-14.41,10.95-15.83,2.29-1.54,22.14-1.94,24.41-.9C399.57,14.77,404.86,42.22,404.86,42.22Z"/><path class="ar" d="M404.28,42.61,393.11,53l-3.79,1.08-.06,0c-5.6,1.57-15.48,4.21-16.63,3.62a25.45,25.45,0,0,1-4.14-3.91l4.23-2.25-1.69-3,2.08-.92.08-2.54,1.9-1.48.39-.3,2.2-1.71L374,43l-.49.19-.06,0,0-.05L373,42.8l-3.54-3.53L367,39.19l-1.42-5.69-4.42-2.72C362,29.27,363,27.65,364,26c1.37-2.2,2.78-4.38,4.07-6.23h0a23.08,23.08,0,0,1,4-4.84c.77-.52,3.54-.91,7-1.16,3.77-.28,8.34-.38,11.88-.29h0a21.62,21.62,0,0,1,5.55.55c.53.23,1.2,1.73,1.92,3.92,0,0,0,0,0,0h0c2.45,7.42,5.46,22.78,5.78,24.45l0,.07Z"/><path class="as" d="M415.51,48.11A17.45,17.45,0,0,1,411,45.22a18.55,18.55,0,0,1-2-2s15.83-5.38,23.49-6.37a7.85,7.85,0,0,1,3.55.07C437.5,37.54,424.26,40.89,415.51,48.11Z"/><path class="u" d="M404.28,42.61,394.12,53l-4.8,1-.06,0-16.62,3.62c.5-.23,17.17-8.07,16.15-9.56-.49-.72-7-2.66-13.7-4.5l.39-.3c7.49,1.57,15,2.78,15.77,1.45,1.46-2.64-17.48-21.47-18.07-22,.63.57,22.82,20.84,25,17.93s.34-21.88.26-22.69h0v0h0l5.78,24.45,0,.07Z"/><polygon class="d" points="371.85 48.73 373.64 52.34 368.49 53.78 372.72 51.53 371.03 48.57 373.11 47.65 373.19 45.11 375.09 43.63 375.48 43.33 377.68 41.62 373.95 43 373.46 43.19 373.4 43.21 373.35 43.16 372.99 42.8 369.45 39.27 367.01 39.19 365.59 33.5 361.17 30.78 366.17 33.11 367.58 38.8 368.78 38.37 373.35 43.16 379.98 40.52 373.55 45.33 373.42 48.55 371.85 48.73"/><polygon class="m" points="369.45 39.27 371.05 35.45 373.1 34.94 376.57 30.36 373.16 35.45 371.53 35.78 369.98 39.8 369.45 39.27"/><polygon class="m" points="372.72 51.53 374.62 52.97 378.35 53.25 374.18 53.48 372.32 51.74 372.72 51.53"/><polygon class="k" points="372.32 51.74 374.18 53.48 378.35 53.25 373.96 53.78 371.72 52.06 372.32 51.74"/><polygon class="k" points="369.45 39.27 371.05 35.45 373.1 34.94 376.57 30.36 372.57 34.45 370.9 34.62 368.82 39.19 369.45 39.27"/><path class="u" d="M391.26,16.89a6.29,6.29,0,1,1-12.35-2.37,6.38,6.38,0,0,1,.19-.72c3.77-.28,8.34-.38,11.88-.29h0A6.31,6.31,0,0,1,391.26,16.89Z"/><path class="u" d="M394.64,20.27a.86.86,0,0,1-1,.67.85.85,0,1,1,1-.67Z"/><path class="at" d="M392.37,48.81a.85.85,0,1,1-.67-1A.84.84,0,0,1,392.37,48.81Z"/><path class="u" d="M368.6,31a.85.85,0,0,1-1.67-.32.85.85,0,0,1,1.67.32Z"/><path class="au" d="M371.87,24.81A4.23,4.23,0,0,1,364,26c1.37-2.2,2.78-4.38,4.07-6.23h0l.43.06A4.23,4.23,0,0,1,371.87,24.81Z"/><path class="k" d="M432.44,36.82C423.39,39,411,45.22,411,45.22l-2-2S424.78,37.81,432.44,36.82Z"/><polygon class="d" points="414.55 30.24 407.83 26.43 403.45 14.67 395.49 7.5 403.21 15.92 407.75 27.18 414.55 30.24"/><polygon class="c" points="399.96 2 402.48 4.26 400.5 1.9 399.96 2"/><polygon class="c" points="422.67 19.45 419.42 19.36 414.75 22.76 419.4 20.08 422.37 20.15 422.67 19.45"/><polygon class="b" points="18.15 23.42 26.53 30.48 41 28.55 41 16.33 35.87 7.54 19.3 12.61 18.15 23.42"/><polygon class="b" points="213.46 196.21 221.48 188.38 217.17 153.79 229.34 126.84 235.38 125.2 241.51 111 234.17 100.43 225 104.92 220.99 100.43 210.79 104.08 203.96 100.43 194.11 105.85 194.11 123.92 182.54 140.97 183.04 178.46 213.46 196.21"/><polygon class="b" points="291.32 124.21 289.82 118.81 297.71 118.22 299.93 112.5 308.65 112.21 313.06 108.07 321.27 109.17 324.66 106.67 333.51 109.17 344.41 110.89 359.47 135.4 349.92 159.24 345.38 158.17 342.26 180.12 328.45 203.06 313.06 204 313.06 159.1 291.32 124.21"/><path class="av" d="M341.06,122.13c-.54,2.92-1.74,5.16-2.66,5s-1.23-2.68-.69-5.61,1.74-5.15,2.67-5S341.61,119.2,341.06,122.13Z"/><polygon class="aw" points="338.53 127.11 329.35 125.89 329.92 115.23 340.48 116.63 338.53 127.11"/><polygon class="ax" points="332.93 115.63 335.8 111.36 338.83 113.84 338.2 116.33 336.48 126.84 334.08 127.17 331.9 126.23 332.93 115.63"/><path class="k" d="M329.92,115.23l-.2,2.56,3,.31a14.55,14.55,0,0,1,2.46,6.44c2-5.77.65-13.18.65-13.18l-2.87,4.27Z"/><path class="l" d="M335.8,111.36a42.66,42.66,0,0,1,.24,9.8,12.8,12.8,0,0,1-1.86,5.28l-2.39-.77-2.71.19,2.82.37,2.18.94,2.4-.33,2,.27s2-.58,2.54-4.85c.68-5.12-.59-5.63-.59-5.63l-2.28-.3.63-2.49Z"/><path class="m" d="M331.35,120.66c-.12,3-1,5.35-1.92,5.32s-1.6-2.48-1.49-5.45,1-5.36,1.92-5.32S331.47,117.69,331.35,120.66Z"/><path class="n" d="M331.23,121c-.1,2.46-.8,4.42-1.58,4.39s-1.33-2-1.23-4.5.81-4.42,1.58-4.39S331.33,118.55,331.23,121Z"/><path class="ay" d="M331.81,119.1c-.14,3-1,5.35-1.95,5.31s-1.59-2.49-1.45-5.46,1-5.35,1.94-5.31S331.94,116.13,331.81,119.1Z"/><polygon class="az" points="329.99 124.39 320.73 124.46 319.82 113.82 330.46 113.74 329.99 124.39"/><polygon class="ba" points="322.85 113.8 325.11 109.17 328.45 111.21 328.17 113.76 327.93 124.4 325.59 125.07 323.3 124.44 322.85 113.8"/><path class="k" d="M319.82,113.82l.15,2.55,3-.1a14.62,14.62,0,0,1,3.33,6c1.19-6-1.18-13.14-1.18-13.14l-2.26,4.63Z"/><path class="l" d="M325.11,109.17a43.14,43.14,0,0,1,1.59,9.67,12.84,12.84,0,0,1-1.11,5.49l-2.48-.43-2.66.56,2.85,0,2.29.63,2.34-.67H330s1.87-.85,1.84-5.16c0-5.16-1.36-5.49-1.36-5.49l-2.3,0,.28-2.55Z"/><path class="m" d="M322,119c.3,3-.22,5.43-1.16,5.53s-1.93-2.24-2.23-5.2.23-5.43,1.16-5.53S321.69,116,322,119Z"/><path class="n" d="M321.92,119.35c.24,2.44-.19,4.49-1,4.56s-1.6-1.84-1.84-4.28.18-4.49,1-4.57S321.67,116.9,321.92,119.35Z"/><path class="bb" d="M321.14,120.08c.2,3-.41,5.42-1.35,5.48s-1.85-2.3-2-5.27.41-5.42,1.35-5.48S321,117.11,321.14,120.08Z"/><polygon class="bc" points="319.92 125.53 310.72 126.61 308.65 116.14 319.22 114.89 319.92 125.53"/><polygon class="bd" points="311.66 115.78 313.39 110.93 316.94 112.6 316.94 115.16 317.87 125.77 315.62 126.69 313.28 126.31 311.66 115.78"/><path class="k" d="M308.65,116.14l.43,2.52,3-.43a14.6,14.6,0,0,1,4,5.64c.53-6.09-2.62-12.94-2.62-12.94l-1.73,4.85Z"/><path class="l" d="M313.39,110.93a42.94,42.94,0,0,1,2.65,9.45,12.86,12.86,0,0,1-.51,5.57l-2.5-.15-2.58.85,2.83-.34,2.34.37,2.25-.91,2.05-.24s1.77-1,1.26-5.33c-.6-5.12-2-5.31-2-5.31l-2.28.27V112.6Z"/><path class="m" d="M311.37,121.05c.62,2.91.37,5.43-.55,5.62s-2.17-2-2.78-4.92-.38-5.42.54-5.62S310.75,118.14,311.37,121.05Z"/><path class="n" d="M311.34,121.41c.51,2.4.31,4.48-.45,4.64s-1.79-1.66-2.3-4.06-.31-4.48.45-4.64S310.83,119,311.34,121.41Z"/><path class="be" d="M310.78,122.16c.85,2.85.82,5.38-.08,5.65s-2.33-1.82-3.19-4.67-.82-5.38.09-5.65S309.92,119.31,310.78,122.16Z"/><polygon class="bf" points="310.81 127.74 302.1 130.88 297.71 121.14 307.73 117.54 310.81 127.74"/><polygon class="bg" points="300.57 120.12 301.16 115 304.99 115.82 305.57 118.32 308.87 128.44 306.89 129.84 304.52 130.01 300.57 120.12"/><path class="k" d="M297.71,121.14l1,2.36,2.79-1.08a14.58,14.58,0,0,1,5.14,4.59c-.86-6.05-5.47-12-5.47-12l-.59,5.12Z"/><path class="l" d="M301.16,115a43,43,0,0,1,4.71,8.6,12.76,12.76,0,0,1,.77,5.54l-2.48.42L301.84,131l2.68-1,2.37-.17,2-1.4,1.94-.7s1.49-1.42,0-5.47c-1.74-4.86-3.11-4.73-3.11-4.73l-2.16.78-.58-2.5Z"/><path class="m" d="M301.47,125.31c1.26,2.69,1.59,5.2.74,5.6s-2.56-1.46-3.82-4.16-1.6-5.2-.74-5.6S300.21,122.61,301.47,125.31Z"/><path class="n" d="M301.52,125.67c1,2.22,1.32,4.29.61,4.62s-2.11-1.21-3.15-3.43-1.32-4.3-.61-4.63S300.48,123.44,301.52,125.67Z"/><path class="m" d="M307.53,121.4s14.79,12.19,17.36,35.06c2.6,23.06-5,45-5,45h0s5.4-23.26.94-43.87-16.72-37-16.72-37Z"/><path class="bh" d="M304.14,120.59s17.13,14,19.71,36.91c2.59,23.06-3.93,44-3.93,44h0s4.5-22.25-.1-42.83c-5-22.54-12.93-28.84-12.93-28.84Z"/><path class="m" d="M319.5,118.34s14.13,12.95,15.49,35.92c1.37,23.16-7.35,44.72-7.35,44.72h0s6.63-22.94,3.27-43.75-14.75-37.88-14.75-37.88Z"/><path class="bi" d="M316.16,117.35s16.37,14.92,17.73,37.9c1.38,23.16-6.25,43.73-6.25,43.73h0s5.67-22,2.17-42.77c-3.84-22.77-11.39-29.48-11.39-29.48Z"/><path class="m" d="M330.16,117.47s12.45,14.57,11,37.55c-1.45,23.15-12.73,43.49-12.73,43.49h0s9.36-22,8.56-43-10-39.39-10-39.39Z"/><path class="bj" d="M327,116.09s14.44,16.8,13,39.77c-1.45,23.16-11.52,42.65-11.52,42.65h0s8.3-21.12,7.35-42.19c-1.05-23.07-7.73-30.65-7.73-30.65Z"/><path class="m" d="M348,144l-1.55,9-1-.3-1.47-2.1v0a94.38,94.38,0,0,0-6.22-32.84h0l2.67,1.39A47.54,47.54,0,0,1,348,144Z"/><path class="bk" d="M333.82,189.08l0,.09h0A.59.59,0,0,0,333.82,189.08Z"/><path class="bl" d="M333.73,189.27l0-.1a.16.16,0,0,1,0,.06S333.73,189.26,333.73,189.27Z"/><path class="bm" d="M346.41,153.05l-1-.3-1.47-2.1-1.11-1.58c-.2-16.91-4.78-22.94-4.78-22.94l-.34-8.38h0A53.92,53.92,0,0,1,346.74,144,46.11,46.11,0,0,1,346.41,153.05Z"/><polygon class="n" points="315.69 144.7 318.79 144.7 316.16 145.96 315.69 144.7"/><polygon class="n" points="330.33 159.86 334.06 160.58 334.98 160.58 334.12 161.05 330.33 159.86"/><polygon class="n" points="340.48 141.69 339.13 142.78 335.37 143.42 339.25 143.42 340.48 141.69"/><polygon class="n" points="342.25 126.03 341.27 127.78 342.63 126.9 344.75 127.78 344.14 126.26 342.25 126.03"/><polygon class="m" points="347.96 144.03 346.41 153.05 345.38 152.75 343.91 150.65 342.8 149.07 343.91 150.61 344.74 151.78 346.74 144.03 347.96 144.03"/><polygon class="n" points="347.19 148.56 345.67 148.2 343.69 140.26 346.02 146.84 347.19 147.51 347.19 148.56"/><polygon class="k" points="344.75 127.78 342.63 126.9 341.27 127.78 343.01 127.34 344.75 127.78"/><polygon class="k" points="347.19 148.56 345.67 148.2 343.69 140.26 345.44 149.1 347.19 149.56 347.19 148.56"/><polygon class="k" points="335.37 143.42 339.25 143.42 340.48 141.69 339.36 144.03 335.37 143.42"/><polygon class="k" points="330.33 159.86 334.06 161.4 334.98 160.58 334.12 161.05 330.33 159.86"/><polygon class="k" points="316.16 145.96 318.79 144.7 316.46 146.81 316.16 145.96"/><polygon class="b" points="423.55 110.36 415.92 106.46 408.38 111.23 399.94 109.86 392.41 119.65 395.48 131.03 413.37 135.06 418.88 131.16 425.84 122.92 423.55 110.36"/><path class="bn" d="M197.82,112.45c.13,2.74.93,4.93,1.8,4.89s1.46-2.29,1.33-5-.93-4.93-1.79-4.89S197.69,109.71,197.82,112.45Z"/><polygon class="bo" points="199.5 117.32 208.03 117.39 208.87 107.58 199.06 107.51 199.5 117.32"/><polygon class="bp" points="206.07 107.56 203.99 103.3 200.92 105.17 201.18 107.53 201.4 117.34 203.55 117.95 205.66 117.37 206.07 107.56"/><path class="k" d="M208.87,107.58l-.14,2.36-2.75-.1a13.42,13.42,0,0,0-3.07,5.57c-1.1-5.53,1.08-12.12,1.08-12.12l2.08,4.27Z"/><path class="l" d="M204,103.29a39.82,39.82,0,0,0-1.47,8.92,11.86,11.86,0,0,0,1,5.05l2.28-.39,2.45.52-2.62,0-2.11.58-2.15-.61-1.9,0s-1.73-.78-1.7-4.75c0-4.75,1.26-5.06,1.26-5.06h2.11l-.25-2.34Z"/><path class="m" d="M206.87,112.35c-.27,2.73.21,5,1.07,5.1s1.78-2.06,2.06-4.79-.21-5-1.07-5.09S207.14,109.62,206.87,112.35Z"/><path class="n" d="M206.94,112.68c-.23,2.25.17,4.13.88,4.2s1.47-1.69,1.69-3.95-.17-4.13-.88-4.2S207.16,110.42,206.94,112.68Z"/><path class="bq" d="M213.79,113.34c-.18,2.74.38,5,1.25,5.06s1.7-2.12,1.88-4.86-.38-5-1.25-5.05S214,110.61,213.79,113.34Z"/><polygon class="br" points="214.92 118.37 223.39 119.37 225.3 109.71 215.56 108.56 214.92 118.37"/><polygon class="bs" points="222.53 109.39 220.93 104.92 217.66 106.45 217.66 108.81 216.81 118.59 218.88 119.43 221.04 119.09 222.53 109.39"/><path class="k" d="M225.3,109.71l-.4,2.33-2.72-.4a13.44,13.44,0,0,0-3.66,5.2c-.49-5.61,2.41-11.92,2.41-11.92l1.6,4.47Z"/><path class="l" d="M220.93,104.92a39.52,39.52,0,0,0-2.44,8.7,11.82,11.82,0,0,0,.47,5.13l2.31-.13,2.38.78-2.61-.31-2.16.34-2.07-.84-1.89-.22s-1.63-1-1.17-4.91c.56-4.72,1.81-4.89,1.81-4.89l2.1.24v-2.36Z"/><path class="m" d="M222.8,114.24c-.57,2.68-.35,5,.5,5.18s2-1.85,2.57-4.53.34-5-.51-5.18S223.37,111.55,222.8,114.24Z"/><path class="n" d="M222.82,114.57c-.47,2.21-.28,4.13.42,4.28s1.65-1.53,2.12-3.74.28-4.13-.42-4.28S223.29,112.35,222.82,114.57Z"/><path class="bt" d="M223.34,115.26c-.79,2.62-.75,5,.08,5.21s2.14-1.68,2.93-4.31.75-5-.08-5.21S224.13,112.63,223.34,115.26Z"/><polygon class="bu" points="223.31 120.41 231.34 123.3 235.38 114.32 226.15 111 223.31 120.41"/><polygon class="bv" points="232.75 113.38 232.2 108.67 228.68 109.42 228.14 111.72 225.1 121.05 226.93 122.34 229.1 122.49 232.75 113.38"/><path class="k" d="M235.38,114.32l-.91,2.18-2.57-1a13.48,13.48,0,0,0-4.74,4.23c.79-5.57,5-11.07,5-11.07l.55,4.72Z"/><path class="l" d="M232.2,108.66a39.74,39.74,0,0,0-4.34,7.93,11.73,11.73,0,0,0-.7,5.11l2.28.38,2.14,1.3-2.47-.89-2.19-.15-1.82-1.29-1.79-.64s-1.37-1.31,0-5c1.61-4.47,2.87-4.36,2.87-4.36l2,.72.54-2.3Z"/><path class="m" d="M231.92,118.16c-1.17,2.49-1.47,4.8-.69,5.17s2.37-1.35,3.53-3.84,1.47-4.79.68-5.16S233.08,115.68,231.92,118.16Z"/><path class="n" d="M231.87,118.49c-1,2.05-1.21,4-.57,4.26s2-1.11,2.91-3.16,1.21-4,.57-4.26S232.83,116.44,231.87,118.49Z"/><path class="m" d="M226.34,114.56s-13.63,11.23-16,32.31c-2.39,21.24,4.59,41.51,4.59,41.51h0s-5-21.43-.87-40.43,15.41-34.13,15.41-34.13Z"/><path class="bw" d="M229.46,113.82s-15.79,12.93-18.16,34c-2.4,21.25,3.62,40.55,3.62,40.55h0s-4.15-20.5.09-39.46c4.64-20.77,11.91-26.58,11.91-26.58Z"/><path class="m" d="M207.86,179.71a1.81,1.81,0,0,1,.12.22.77.77,0,0,0-.1-.12c-1.34-1.82-13.14-18.08-17.3-37.78q-.26-1.2-.45-2.37l1.16.26,3,.65c0,.44.07.88.12,1.33a74.35,74.35,0,0,0,2.25,11.49A116.07,116.07,0,0,0,207.86,179.71Z"/><path class="m" d="M218.38,110.83h0A101.67,101.67,0,0,0,206.47,138h0l-.39-4.33-3.47,7.17h0l-1.14-.19c2.55-18.53,13.85-28.89,13.85-28.89Z"/><path class="bx" d="M207.86,179.71a1.81,1.81,0,0,1,.12.22.77.77,0,0,0-.1-.12C206.63,178,196,162.3,191.79,142.64c-.19-.91-.35-1.83-.5-2.72l3,.65,1.18.27c0,.55.09,1.1.16,1.67a80.47,80.47,0,0,0,2.55,13.25A116.7,116.7,0,0,0,207.86,179.71Z"/><path class="by" d="M218.38,110.83l-2.08,8.64s-4.31,3.83-7.86,15.69h0l-2,2.81h0l-.39-4.33-3.47,7.17h0c3-18,15.36-29.58,15.78-30Z"/><polygon class="n" points="218.82 136.03 215.96 136.03 218.38 137.2 218.82 136.03"/><polygon class="n" points="196.08 145.87 192.94 147.42 192.13 147.65 193 147.85 196.08 145.87"/><polygon class="k" points="196.08 145.87 193.15 148.15 192.13 147.65 193 147.85 196.08 145.87"/><polygon class="k" points="218.38 137.2 215.96 136.03 218.1 137.97 218.38 137.2"/><polygon class="m" points="206.46 137.97 205.25 137.97 204.92 136.03 206.07 133.65 206.46 137.97"/><path class="m" d="M270.64,149.91a16.8,16.8,0,0,1,10.72,4.86,34.89,34.89,0,0,1,7.42,11.43h0s-3.17-6.44-8.13-10.39a32.37,32.37,0,0,0-10.95-5.44Z"/><path class="bz" d="M269.7,150.37a18.23,18.23,0,0,1,11.62,4.84,36.27,36.27,0,0,1,7.46,11h0a35.42,35.42,0,0,0-8.18-9.95c-5.46-4.29-8.5-4.25-8.5-4.25Z"/><path class="ca" d="M410.75,115.34a7.1,7.1,0,0,0-10-.49,8.87,8.87,0,0,0-.61,12.54,11.09,11.09,0,0,0,15.66.76,13.86,13.86,0,0,0,1-19.58Z"/><path class="cb" d="M416.87,108.45a14.14,14.14,0,0,1,3.48,11.38,13.78,13.78,0,0,1-6.55,9.9,11.2,11.2,0,0,1-11.66-.47,9.7,9.7,0,0,1-3.84-4.66,9,9,0,0,1-.11-6,8.72,8.72,0,0,1,3.74-4.7,7.24,7.24,0,0,1,5.93-.55,6.63,6.63,0,0,1,4.18,4.18,5.72,5.72,0,0,1-1.43,5.66,4.56,4.56,0,0,1-5.62.76,4,4,0,0,1-1.87-2.32,3.66,3.66,0,0,1,.42-2.94,3.07,3.07,0,0,1,2.5-1.53,2.9,2.9,0,0,1,2.57,1.37,2.35,2.35,0,0,1-.38,2.81,1.89,1.89,0,0,1-2.72,0,1.88,1.88,0,0,0,2.71,0,2.32,2.32,0,0,0,.37-2.79,2.88,2.88,0,0,0-2.55-1.35,3,3,0,0,0-2.46,1.52,3.61,3.61,0,0,0-.41,2.9,4,4,0,0,0,1.85,2.29,4.59,4.59,0,0,0,2.9.57,4.53,4.53,0,0,0,2.63-1.35,5.6,5.6,0,0,0,1.38-5.56,6.51,6.51,0,0,0-4.12-4.08,7.13,7.13,0,0,0-5.8.55,8.55,8.55,0,0,0-3.65,4.62,8.88,8.88,0,0,0,.13,5.89,9.43,9.43,0,0,0,3.78,4.54,10.93,10.93,0,0,0,11.4.42,13.47,13.47,0,0,0,6.37-9.7,13.82,13.82,0,0,0-3.44-11.1Z"/><path class="d" d="M405.88,121.53a.92.92,0,0,1-.35-.24A1.89,1.89,0,0,0,405.88,121.53Z"/><path class="d" d="M408.45,120.51a3.43,3.43,0,0,0,.46-.86,2,2,0,0,1-3,1.89A2.48,2.48,0,0,0,408.45,120.51Z"/><path class="d" d="M404.19,123.41a3.92,3.92,0,0,1-.95-4.25,3.63,3.63,0,0,0,.87,3.13,4.56,4.56,0,0,0,6.42.31,5.6,5.6,0,0,0,1.59-2.46,6.65,6.65,0,0,1-.43,1.43A4.6,4.6,0,0,1,404.19,123.41Z"/><path class="d" d="M420.29,120.31c-1,6-6.08,11.14-12.34,10.84s-9.95-4.79-10.22-9.34a7.11,7.11,0,0,1,.53-3.35,8.62,8.62,0,0,0,2.23,8,10.46,10.46,0,0,0,15.14.62c5.67-5.15,6.25-12.81,1.11-18.48A13.85,13.85,0,0,1,420.29,120.31Z"/><path class="d" d="M412.2,119.73l8.25-.82a13.51,13.51,0,0,0-.45-4.51l-7.79,4.31Z"/><path class="d" d="M408.48,124.39l.1,6.77a12.88,12.88,0,0,1-3-.35l2.05-6.16Z"/><polygon class="d" points="405.29 124.07 399.3 126.49 398.89 125.81 404.84 123.92 405.29 124.07"/><path class="d" d="M403,120.72l-4.86-1.89a8.6,8.6,0,0,1,5.61-5.67l1.92,4A4,4,0,0,0,403,120.72Z"/><polygon class="d" points="408.59 118.51 411.97 117.47 412.08 117.9 408.75 118.83 408.59 118.51"/><polygon class="d" points="408.14 121.4 409.92 123.72 408.82 124.27 407.95 121.56 408.14 121.4"/><polygon class="d" points="406 121.66 403.74 122.92 403.06 121.37 405.53 121.29 406 121.66"/><polygon class="d" points="406.5 117.19 405.88 121.53 407 117.29 406.5 117.19"/><path class="d" d="M408.89,119.37l-3,2.16,2.71-.81S409,120.74,408.89,119.37Z"/><path class="k" d="M416.47,109.86l-4.91,5.27,3.24-2.37s5.11,8.51-1.25,13.63-12.27.32-12.27.32,7.44,5.89,14.3-.34S416.47,109.86,416.47,109.86Z"/><path class="k" d="M407.41,123.36s3.67-.57,4.29-3.68c.65-3.3-3-6.08-5.66-6.24a7.59,7.59,0,0,0-4.72,1.5,6.48,6.48,0,0,1,5.31-.84c3,.87,4.8,3.79,4.14,5.92A5.66,5.66,0,0,1,407.41,123.36Z"/><path class="cc" d="M32.64,17.44a4.11,4.11,0,0,0-5.81-.28,5.13,5.13,0,0,0-.35,7.25,6.42,6.42,0,0,0,9.07.45,8,8,0,0,0,.55-11.35Z"/><path class="cd" d="M36.18,13.44a8.26,8.26,0,0,1,2,6.6,8,8,0,0,1-3.8,5.73,6.48,6.48,0,0,1-6.75-.27,5.6,5.6,0,0,1-2.22-2.7,5.2,5.2,0,0,1-.07-3.48,5,5,0,0,1,2.17-2.72A4.17,4.17,0,0,1,31,16.28a3.83,3.83,0,0,1,2.42,2.42A3.29,3.29,0,0,1,32.56,22a2.67,2.67,0,0,1-3.26.45,2.31,2.31,0,0,1-1.08-1.35,2.08,2.08,0,0,1,.24-1.7,1.81,1.81,0,0,1,1.45-.89,1.67,1.67,0,0,1,1.48.8,1.33,1.33,0,0,1-.22,1.62,1.07,1.07,0,0,1-1.57,0,1.08,1.08,0,0,0,1.57,0,1.35,1.35,0,0,0,.21-1.62,1.67,1.67,0,0,0-1.47-.78,1.81,1.81,0,0,0-1.43.88,2.07,2.07,0,0,0-.23,1.68,2.28,2.28,0,0,0,1.07,1.33,2.64,2.64,0,0,0,3.2-.45,3.25,3.25,0,0,0,.8-3.22,3.72,3.72,0,0,0-2.39-2.36,4.12,4.12,0,0,0-3.36.31,5,5,0,0,0-2.11,2.68,5.12,5.12,0,0,0,.08,3.41,5.55,5.55,0,0,0,2.18,2.63,6.36,6.36,0,0,0,6.61.24A7.8,7.8,0,0,0,38,20a8,8,0,0,0-2-6.43Z"/><path class="d" d="M29.82,21a.49.49,0,0,1-.21-.14A1.78,1.78,0,0,0,29.82,21Z"/><path class="d" d="M31.3,20.43a1.88,1.88,0,0,0,.27-.5,1.07,1.07,0,0,1-.23.84,1.1,1.1,0,0,1-1.52.25A1.41,1.41,0,0,0,31.3,20.43Z"/><path class="d" d="M28.83,22.11a2.29,2.29,0,0,1-.55-2.46,2.11,2.11,0,0,0,.51,1.81,2.63,2.63,0,0,0,3.72.18,3.26,3.26,0,0,0,.92-1.42,3.91,3.91,0,0,1-.25.83A2.67,2.67,0,0,1,28.83,22.11Z"/><path class="d" d="M38.16,20.32c-.58,3.47-3.52,6.45-7.15,6.27a5.91,5.91,0,0,1-5.92-5.41,4.18,4.18,0,0,1,.31-1.94,5,5,0,0,0,1.29,4.62,6.06,6.06,0,0,0,8.77.36,7.3,7.3,0,0,0,.64-10.71A8,8,0,0,1,38.16,20.32Z"/><path class="d" d="M33.47,20l4.78-.48A7.59,7.59,0,0,0,38,16.89l-4.51,2.5Z"/><path class="d" d="M31.32,22.68l.06,3.92a7.43,7.43,0,0,1-1.75-.21l1.19-3.56Z"/><polygon class="d" points="29.47 22.49 26 23.89 25.77 23.5 29.21 22.41 29.47 22.49"/><path class="d" d="M28.13,20.55l-2.81-1.09a5,5,0,0,1,3.25-3.28l1.11,2.34A2.29,2.29,0,0,0,28.13,20.55Z"/><polygon class="d" points="31.39 19.27 33.34 18.67 33.41 18.92 31.48 19.46 31.39 19.27"/><polygon class="d" points="31.13 20.95 32.15 22.29 31.52 22.61 31.01 21.04 31.13 20.95"/><polygon class="d" points="29.89 21.09 28.57 21.83 28.18 20.93 29.61 20.88 29.89 21.09"/><polygon class="d" points="30.17 18.51 29.82 21.02 30.46 18.57 30.17 18.51"/><path class="d" d="M31.56,19.77,29.82,21l1.57-.47S31.63,20.57,31.56,19.77Z"/><path class="k" d="M36,14.26,33.1,17.32,35,15.94s3,4.93-.72,7.89a5.78,5.78,0,0,1-7.11.19s4.31,3.41,8.29-.2S36,14.26,36,14.26Z"/><path class="k" d="M30.7,22.08s2.12-.33,2.48-2.13-1.74-3.52-3.27-3.61a4.31,4.31,0,0,0-2.73.87,3.72,3.72,0,0,1,3.07-.49c1.72.5,2.78,2.2,2.4,3.43A3.28,3.28,0,0,1,30.7,22.08Z"/><polygon class="ce" points="153.66 146.64 151.94 151.68 165.85 157.01 166.7 145.19 153.66 146.64"/><polygon class="cf" points="149.84 153.59 160.07 163.21 163.66 156.18 151.94 151.68 149.84 153.59"/><polygon class="u" points="147.6 154.59 149.84 166.93 158.72 161.93 149.84 153.59 147.6 154.59"/><polygon class="cg" points="145.05 154.83 141.94 166.09 149.69 166.09 147.6 154.59 145.05 154.83"/><polygon class="ch" points="141.94 153.89 132.4 160.93 142.09 165.55 145.05 154.83 141.94 153.89"/><polygon class="u" points="140.53 152.71 129.99 153.89 134.04 159.72 141.94 153.89 140.53 152.71"/><polygon class="ci" points="138.78 149.31 129.16 146.51 130.9 153.79 140.53 152.71 138.78 149.31"/><polygon class="u" points="139.28 146.06 133.5 139.43 129.99 146.75 138.78 149.31 139.28 146.06"/><polygon class="cj" points="140.56 144.39 139.28 135.89 134.06 140.08 139.28 146.06 140.56 144.39"/><polygon class="u" points="142.45 143.28 144.59 135.49 139.28 136.89 140.56 144.39 142.45 143.28"/><polygon class="u" points="144.94 143.1 151.23 138.12 144.42 136.1 142.45 143.28 144.94 143.1"/><polygon class="ck" points="147.72 144.83 153.65 142.47 150.68 138.55 144.94 143.1 147.72 144.83"/><polygon class="u" points="148.3 146.83 154.89 147.94 153.16 142.66 147.72 144.83 148.3 146.83"/><polygon class="cl" points="147.94 148.79 153.65 151.68 153.31 147.67 148.3 146.83 147.94 148.79"/><polygon class="u" points="146.09 150.31 149.84 155.53 152.5 151.1 147.94 148.79 146.09 150.31"/><polygon class="cm" points="143.91 150.44 143.66 155.81 149.02 154.39 146.09 150.31 143.91 150.44"/><polygon class="cn" points="142.93 149.62 139.59 153.38 143.66 154.57 143.91 150.44 142.93 149.62"/><polygon class="co" points="142.39 148.79 137.7 149.31 140.19 152.71 142.93 149.62 142.39 148.79"/><polygon class="cp" points="142.45 147.6 138.73 145.02 138.23 149.25 142.39 148.79 142.45 147.6"/><polygon class="cq" points="143.26 146.83 142.12 141.69 139.14 145.3 142.45 147.6 143.26 146.83"/><polygon class="cr" points="144.31 146.51 146.5 142.39 142.32 142.58 143.22 146.66 144.31 146.51"/><polygon class="cs" points="144.94 147.14 149.02 145.3 146.09 143.15 144.31 146.51 144.94 147.14"/><polygon class="ct" points="144.59 148.24 149.29 148.5 148.23 145.66 144.94 147.14 144.59 148.24"/><polygon class="u" points="144.41 148.79 145.82 151.68 148.51 148.46 144.59 148.24 144.41 148.79"/><polygon class="cu" points="143.66 148.24 142.25 151.28 145.4 150.83 144.41 148.56 143.66 148.24"/><polygon class="cv" points="143.11 147.94 140.56 147.2 142.7 150.31 143.66 148.24 143.11 147.94"/><polygon class="cw" points="142.32 145.61 143.66 147.48 143.66 148.24 141.2 147.39 142.32 145.61"/><polygon class="cx" points="145.82 145.86 144.41 148.79 143.66 148.24 142.54 145.92 145.82 145.86"/><polygon class="cy" points="163.66 145.61 161.99 155.53 156.94 160.26 149.29 163.21 142.93 162.8 135.64 158.47 133.28 153.52 132.4 147.45 135.26 141.46 139.56 138.55 143.91 137.96 149.69 139.69 152.5 143.54 152.5 147.6 151.48 150.58 148.06 153.06 143.75 153.89 140.56 152.49 139.14 149.16 139.59 145.66 142.54 143.59 145.71 143.88 147.6 145.94 147.72 148.42 145.18 150.31 143.09 149.76 141.58 147.6 140.56 147.2 142.7 150.31 142.25 151.28 145.4 150.83 145.82 151.68 148.51 148.46 149.29 148.5 148.23 145.66 149.02 145.3 146.09 143.15 146.5 142.39 142.32 142.58 142.12 141.69 139.14 145.3 138.73 145.02 138.23 149.25 137.7 149.31 140.19 152.71 139.59 153.38 143.66 154.57 143.66 155.81 149.02 154.39 149.84 155.53 152.5 151.1 153.65 151.68 153.31 147.67 154.89 147.94 153.16 142.66 153.65 142.47 150.68 138.55 151.23 138.12 144.42 136.1 144.59 135.49 139.28 136.89 139.28 135.89 134.06 140.08 133.5 139.43 129.99 146.75 129.16 146.51 130.9 153.79 129.99 153.89 134.04 159.72 132.4 160.93 142.09 165.55 141.94 166.09 149.69 166.09 149.84 166.93 158.72 161.93 160.07 163.21 163.66 156.18 165.85 157.01 166.7 145.19 163.66 145.61"/><polygon class="cz" points="153.16 142.66 149.3 144.2 153.16 143.15 153.16 142.66"/><polygon class="cz" points="151.94 151.68 163.02 157.44 163.66 156.18 151.94 151.68"/><polygon class="cz" points="158.72 161.93 151.31 154.97 157.28 162.74 158.72 161.93"/><polygon class="cz" points="147.94 156.45 149.69 166.09 147.94 166.09 147.94 156.45"/><polygon class="cz" points="144.67 156.21 142.09 165.55 140.53 164.81 144.67 156.21"/><polygon class="cz" points="134.04 159.72 133.17 158.46 140.56 154.97 134.04 159.72"/><polygon class="cz" points="130.9 153.79 130.64 152.71 137.31 153.07 130.9 153.79"/><polygon class="cz" points="129.99 146.75 135.97 148.49 130.32 146.06 129.99 146.75"/><polygon class="cz" points="134.06 140.08 137.31 143.81 134.85 139.45 134.06 140.08"/><polygon class="cz" points="139.28 136.89 139.93 140.69 139.93 136.72 139.28 136.89"/><polygon class="cz" points="144.42 136.1 144.18 139.69 145.05 136.29 144.42 136.1"/><polygon class="cz" points="150.68 138.55 147.35 141.19 150.97 138.94 150.68 138.55"/><polygon class="cz" points="153.31 147.67 150.1 147.14 153.16 148.24 153.31 147.67"/><polygon class="cz" points="152.5 151.1 148.51 149.08 152.28 151.47 152.5 151.1"/><polygon class="cz" points="149.02 154.39 146.78 151.28 148.51 154.53 149.02 154.39"/><polygon class="cz" points="143.66 154.57 143.86 151.28 143.26 154.29 143.66 154.57"/><polygon class="cz" points="140.19 152.71 141.61 151.1 139.93 152.16 140.19 152.71"/><polygon class="cz" points="138.23 149.25 140.53 148.76 138.29 148.76 138.23 149.25"/><polygon class="cz" points="139.14 145.3 140.77 146.43 139.38 145.02 139.14 145.3"/><polygon class="cz" points="142.32 142.58 142.93 145.19 142.64 142.58 142.32 142.58"/><polygon class="cz" points="146.09 143.15 145.03 145.14 146.47 143.43 146.09 143.15"/><polygon class="cz" points="148.23 145.66 146.34 146.66 148.3 145.86 148.23 145.66"/><polygon class="cz" points="148.51 148.46 145.82 148.31 148.26 148.76 148.51 148.46"/><path class="cz" d="M145.4,150.83c-.08-.15-.89-1.82-.89-1.82l.54,1.82Z"/><polygon class="cz" points="143.66 148.24 142.7 150.31 142.43 149.76 143.66 148.24"/><polygon class="cz" points="141.2 147.39 143.26 148.02 141.39 147.08 141.2 147.39"/><path class="cz" d="M142.54,145.92s1.07,2.22,1,2-.49-2.13-.49-2.13Z"/><polygon class="k" points="156.13 147.6 161.96 147.33 160.6 153.25 154.89 151.47 156.13 147.6"/><polygon class="k" points="153.16 152.71 159.84 156.45 159.02 157.01 153.16 153.25 153.16 152.71"/><polygon class="k" points="150.79 155.28 154.43 160.34 151.23 161.75 149.69 156.45 150.79 155.28"/><polygon class="k" points="147.16 155.81 147.16 162.44 144.41 162.44 146.09 155.81 147.16 155.81"/><polygon class="k" points="143.66 156.21 141.2 160.54 139.6 159.72 143.05 155.81 143.66 156.21"/><polygon class="k" points="139.93 154.59 135.97 155.53 135.09 153.89 138.73 153.59 139.93 154.59"/><polygon class="k" points="137.99 151.91 136.52 149.31 133.46 149.25 133.63 152.36 137.99 151.91"/><polygon class="k" points="137.7 148.76 133.46 146.51 134.06 145.3 137.99 148.24 137.7 148.76"/><polygon class="k" points="138.23 144.53 136.54 141.19 137.7 140.37 138.49 144.15 138.23 144.53"/><polygon class="k" points="140.77 142.39 140.34 139.07 141.61 138.55 141.2 142.23 140.77 142.39"/><polygon class="k" points="144.18 141.69 145.05 140.06 145.75 140.37 144.62 141.88 144.18 141.69"/><polygon class="k" points="147.32 142.99 149.69 142.14 150.31 143.15 148.51 143.89 147.32 142.99"/><polygon class="k" points="149.46 145.02 151.23 144.53 150.97 146.16 149.3 146.43 149.46 145.02"/><polygon class="k" points="150.1 148.02 150.97 148.79 150.26 149.31 149.43 149.01 150.1 148.02"/><polygon class="k" points="147.93 150.31 148.51 151.91 150.1 150.75 149.01 149.96 147.93 150.31"/><polygon class="k" points="144.67 151.68 144.51 153.25 146.5 152.71 146.09 151.91 144.67 151.68"/><polygon class="k" points="141.93 151.47 141.2 152.36 142.6 152.9 142.62 151.91 141.93 151.47"/><polygon class="k" points="139.93 149.31 140.53 150.75 141.2 150.03 140.56 149.25 139.93 149.31"/><polygon class="k" points="139.74 148.02 139.74 146.51 140.31 146.83 140.31 147.94 139.74 148.02"/><polygon class="k" points="140.77 145.61 141.94 144.65 142.23 145.13 141.2 146.06 140.77 145.61"/><polygon class="k" points="143.56 144.2 144.94 144.37 144.31 145.19 143.52 145.02 143.56 144.2"/><polygon class="k" points="146.09 144.83 145.75 145.35 146.34 146.06 146.84 145.81 146.09 144.83"/><polygon class="k" points="147.16 146.83 146.5 146.88 146.09 148.02 147.16 148.02 147.16 146.83"/><polygon class="k" points="144.94 148.76 145.5 149.62 146.34 149.01 145.4 148.76 144.94 148.76"/><polygon class="k" points="143.66 148.67 143.26 149.31 144.23 149.62 144.06 148.53 143.66 148.67"/><polygon class="k" points="143.41 146.06 143.91 147.94 144.41 147.94 145.22 146.16 143.41 146.06"/><polygon class="k" points="143.15 147.55 142.32 146.43 141.91 146.99 143.03 147.69 143.15 147.55"/><polygon class="k" points="141.91 147.81 143.15 148.18 142.74 148.79 141.91 147.81"/><polygon class="b" points="49.1 48.75 49.61 40.05 63.05 44.4 74.25 60.39 65.76 74.4 48.48 76.93 36.06 67.22 39.39 52.81 49.1 48.75"/><polygon class="da" points="52.57 54.53 56.19 56.01 60.7 46.05 52.09 44.91 52.57 54.53"/><polygon class="db" points="57.5 57.63 64.99 50.56 60 47.62 56.19 56.01 57.5 57.63"/><polygon class="u" points="58.13 59.32 67.26 58.22 64 51.5 57.5 57.63 58.13 59.32"/><polygon class="dc" points="58.19 61.19 66.31 63.97 66.65 58.29 58.13 59.32 58.19 61.19"/><polygon class="dd" points="57.37 63.43 62.1 70.73 65.91 63.83 58.19 61.19 57.37 63.43"/><polygon class="u" points="56.44 64.41 56.84 72.19 61.29 69.48 57.37 63.43 56.44 64.41"/><polygon class="de" points="53.87 65.55 51.39 72.47 56.8 71.51 56.44 64.41 53.87 65.55"/><polygon class="u" points="51.51 65.04 46.4 68.98 51.61 71.87 53.87 65.55 51.51 65.04"/><polygon class="df" points="50.34 64.03 44.06 64.59 46.9 68.6 51.51 65.04 50.34 64.03"/><polygon class="u" points="49.61 62.59 44 60.68 44.79 64.64 50.34 64.03 49.61 62.59"/><polygon class="u" points="49.59 60.76 46.22 55.94 44.45 60.83 49.61 62.59 49.59 60.76"/><polygon class="dg" points="50.98 58.8 49.51 54.35 46.51 56.35 49.59 60.76 50.98 58.8"/><polygon class="u" points="52.47 58.46 53.58 53.68 49.63 54.72 50.98 58.8 52.47 58.46"/><polygon class="dh" points="53.9 58.82 56.26 54.76 53.31 54.83 52.47 58.46 53.9 58.82"/><polygon class="u" points="54.93 60.23 58.92 57.72 55.79 55.57 53.9 58.82 54.93 60.23"/><polygon class="di" points="54.93 61.84 58.84 62.26 58.04 58.27 54.93 60.23 54.93 61.84"/><polygon class="dj" points="54.28 62.52 56.89 65.13 57.94 62.2 54.93 61.84 54.28 62.52"/><polygon class="dk" points="53.65 62.88 53.83 66.34 56.42 64.66 54.28 62.52 53.65 62.88"/><polygon class="dl" points="52.78 62.78 50.72 65.39 53.81 65.95 53.65 62.88 52.78 62.78"/><polygon class="dm" points="52.25 62.16 48.44 62.76 50.95 65.11 52.78 62.78 52.25 62.16"/><polygon class="dn" points="52.06 61.37 49.14 59.59 49.1 62.66 52.13 62.18 52.06 61.37"/><polygon class="do" points="52.55 60.94 51.38 57.87 49.68 59.92 52.06 61.37 52.55 60.94"/><polygon class="dp" points="53.34 61.24 53.74 57.81 51.61 58.46 52.55 60.94 53.34 61.24"/><polygon class="u" points="53.74 61.4 55.91 60.49 53.67 58.38 53.34 61.24 53.74 61.4"/><polygon class="dq" points="53.3 61.92 55.46 63.09 55.27 60.76 53.56 61.39 53.3 61.92"/><polygon class="dr" points="53.06 62.31 52.4 64.15 54.78 62.72 53.3 61.92 53.06 62.31"/><polygon class="ds" points="51.31 62.79 52.75 61.89 53.3 61.92 52.57 63.69 51.31 62.79"/><polygon class="dt" points="51.65 60.24 53.74 61.4 53.3 61.92 51.55 62.64 51.65 60.24"/><polygon class="cy" points="52.26 47.15 59.45 48.81 62.69 52.73 64.51 58.46 63.94 63.1 60.44 68.25 56.71 69.76 52.23 70.14 47.97 67.78 46.02 64.5 45.78 61.29 47.3 57.13 50.25 55.24 53.22 55.42 55.36 56.3 57.03 58.91 57.44 62.11 56.28 64.38 53.77 65.28 51.23 64.79 49.84 62.54 50.2 60.23 51.79 58.94 53.61 58.96 54.89 60.9 54.39 62.41 52.74 63.42 52.4 64.15 54.78 62.72 55.46 63.09 55.27 60.76 55.91 60.49 53.67 58.38 53.74 57.81 51.61 58.46 51.38 57.87 49.68 59.92 49.14 59.59 49.1 62.66 48.44 62.76 50.95 65.11 50.72 65.39 53.81 65.95 53.83 66.34 56.42 64.66 56.89 65.13 57.94 62.2 58.84 62.26 58.04 58.27 58.92 57.72 55.79 55.57 56.26 54.76 53.31 54.83 53.58 53.68 49.63 54.72 49.51 54.35 46.51 56.35 46.22 55.94 44.45 60.83 44 60.68 44.79 64.64 44.06 64.59 46.9 68.6 46.4 68.98 51.61 71.87 51.39 72.47 56.8 71.51 56.84 72.19 61.29 69.48 62.1 70.73 65.91 63.83 66.31 63.97 66.65 58.29 67.26 58.22 64 51.5 64.99 50.56 60 47.62 60.7 46.05 52.09 44.91 52.26 47.15"/><polygon class="cz" points="49.63 54.72 50.59 57.61 49.99 54.74 49.63 54.72"/><polygon class="cz" points="56.19 56.01 60.9 48.15 60 47.62 56.19 56.01"/><polygon class="cz" points="64 51.5 58.57 56.62 64.52 52.58 64 51.5"/><polygon class="cz" points="59.51 59.15 66.65 58.29 66.57 59.58 59.51 59.15"/><polygon class="cz" points="59.19 61.53 65.91 63.83 65.3 64.94 59.19 61.53"/><polygon class="cz" points="61.29 69.48 60.33 70.06 58.09 64.49 61.29 69.48"/><polygon class="cz" points="56.8 71.51 56 71.66 56.56 66.79 56.8 71.51"/><polygon class="cz" points="51.61 71.87 53.15 67.57 51.12 71.6 51.61 71.87"/><polygon class="cz" points="46.9 68.6 49.77 66.38 46.47 67.99 46.9 68.6"/><polygon class="cz" points="44.79 64.64 47.61 64.33 44.7 64.15 44.79 64.64"/><polygon class="cz" points="44.45 60.83 47.06 61.17 44.61 60.38 44.45 60.83"/><polygon class="cz" points="46.51 56.35 48.3 58.91 46.81 56.16 46.51 56.35"/><polygon class="cz" points="53.31 54.83 52.78 57.16 53.72 54.97 53.31 54.83"/><polygon class="cz" points="55.79 55.57 54.13 58.41 56.05 55.75 55.79 55.57"/><polygon class="cz" points="58.04 58.27 55.66 59.77 58.12 58.65 58.04 58.27"/><polygon class="cz" points="57.94 62.2 55.53 61.91 57.71 62.48 57.94 62.2"/><polygon class="cz" points="56.42 64.66 55.31 63.55 56.01 64.83 56.42 64.66"/><polygon class="cz" points="53.81 65.95 53.54 64.24 53.44 65.88 53.81 65.95"/><polygon class="cz" points="50.95 65.11 51.85 63.96 50.75 64.92 50.95 65.11"/><polygon class="cz" points="49.1 62.66 51.04 62.33 49.11 62.42 49.1 62.66"/><polygon class="cz" points="49.68 59.92 51.09 60.78 49.9 59.65 49.68 59.92"/><polygon class="cz" points="51.61 58.46 52.26 59.89 51.76 58.42 51.61 58.46"/><polygon class="cz" points="53.67 58.38 53.45 60.35 53.88 58.58 53.67 58.38"/><path class="cz" d="M55.27,60.76c-.11.06-1.37.57-1.37.57L55.26,61Z"/><polygon class="cz" points="53.3 61.92 54.78 62.72 54.36 62.89 53.3 61.92"/><polygon class="cz" points="52.57 63.69 53.12 62.21 52.35 63.53 52.57 63.69"/><path class="cz" d="M51.55,62.64,53.08,62c-.16.07-1.59.27-1.59.27Z"/><polygon class="k" points="53.38 52.76 53.44 48.48 57.72 49.74 56.16 53.84 53.38 52.76"/><polygon class="k" points="56.99 55.16 60.03 50.43 60.4 51.06 57.39 55.19 56.99 55.16"/><polygon class="k" points="58.77 57.01 62.64 54.57 63.53 56.98 59.58 57.87 58.77 57.01"/><polygon class="k" points="59 59.69 63.86 59.98 63.74 62 58.95 60.48 59 59.69"/><polygon class="k" points="59.14 62.27 62.2 64.27 61.53 65.4 58.82 62.71 59.14 62.27"/><polygon class="k" points="57.79 64.94 58.3 67.88 57.06 68.45 57.01 65.77 57.79 64.94"/><polygon class="k" points="55.74 66.24 53.77 67.2 53.59 69.44 55.88 69.45 55.74 66.24"/><polygon class="k" points="53.42 66.31 51.58 69.32 50.73 68.83 53.05 66.08 53.42 66.31"/><polygon class="k" points="50.34 65.74 47.83 66.83 47.27 65.94 50.08 65.53 50.34 65.74"/><polygon class="k" points="48.89 63.78 46.44 63.95 46.11 63 48.79 63.46 48.89 63.78"/><polygon class="k" points="48.53 61.26 47.37 60.54 47.63 60.04 48.68 60.94 48.53 61.26"/><polygon class="k" points="49.62 59.01 49.1 57.24 49.87 56.83 50.33 58.18 49.62 59.01"/><polygon class="k" points="51.2 57.53 50.91 56.22 52.1 56.47 52.23 57.71 51.2 57.53"/><polygon class="k" points="53.42 57.19 54.03 56.59 54.38 57.13 54.12 57.73 53.42 57.19"/><polygon class="k" points="55.01 58.89 56.2 58.53 55.42 57.31 54.8 58.08 55.01 58.89"/><polygon class="k" points="55.87 61.33 57.01 61.52 56.7 60.04 56.09 60.3 55.87 61.33"/><polygon class="k" points="55.59 63.33 56.21 63.91 56.67 62.9 55.94 62.85 55.59 63.33"/><polygon class="k" points="53.92 64.7 55 64.33 54.51 63.81 53.91 64.24 53.92 64.7"/><polygon class="k" points="52.97 64.79 51.86 64.72 52.12 64.31 52.94 64.36 52.97 64.79"/><polygon class="k" points="51.25 63.92 50.59 63.02 50.96 62.84 51.6 63.63 51.25 63.92"/><polygon class="k" points="50.34 61.82 50.52 60.82 51.1 61.31 50.93 61.88 50.34 61.82"/><polygon class="k" points="50.91 59.99 51.28 60.26 51.82 59.86 51.66 59.49 50.91 59.99"/><polygon class="k" points="52.42 59.3 52.43 59.78 53.25 60.13 53.3 59.35 52.42 59.3"/><polygon class="k" points="53.74 61.01 54.39 60.63 53.98 59.99 53.76 60.67 53.74 61.01"/><polygon class="k" points="53.61 61.94 54.07 62.27 54.34 61.57 53.53 61.65 53.61 61.94"/><polygon class="k" points="51.7 62.01 53.09 61.73 53.12 61.36 51.84 60.69 51.7 62.01"/><polygon class="k" points="52.77 62.27 51.92 62.83 52.31 63.15 52.87 62.36 52.77 62.27"/><polygon class="k" points="52.91 63.19 53.23 62.3 53.67 62.62 52.91 63.19"/><polygon class="b" points="251.56 116 256.2 121.1 261.53 120.5 265.99 122.89 268.78 97.27 273.37 90.15 307.9 57.55 308.17 53.32 290.4 52.4 286.26 56.49 289.18 60.14 257.74 91.79 258.02 97.83 258.29 104.32 251.56 116"/><path class="du" d="M269.86,90.9c-2.85,6.32-2.88,4.63-3.66,4.28s-5.34-.59-5.88-2c-.12-.31.05-.66.42-1,1.28-1.29,5-3,7.84-6.09,3.67-3.94,24.59-23.46,25.19-24.79s-4.31-3.9-1.46-6.93c0,0,3.18.48,6.36,1.23h0A29,29,0,0,1,303.41,57C306.79,58.56,272.71,84.57,269.86,90.9Z"/><path class="dv" d="M263.1,117c-.73,1.64-1.06.17-2.79-.61a1.64,1.64,0,0,0-.95-.12h-.06c-1.4.23-2.67,1.66-2.51-.51.14-1.9,3.11-3.83,3.8-8.42,1.67-11.1-2.22-10.31-1.55-11.79.6-1.33,7.25,1,7.55,1.83s-.7,1.55-2.25,5S263.84,115.37,263.1,117Z"/><path class="m" d="M269.86,90.9c-2.85,6.32-2.88,4.63-3.66,4.28s-5.34-.59-5.88-2c-.12-.31.05-.66.42-1a36.14,36.14,0,0,0,4.93,1.29c1.62.19,3-2.21,4.82-4.66S301.69,60,301.16,58.53a9.42,9.42,0,0,0-2.48-3A29,29,0,0,1,303.41,57C306.79,58.56,272.71,84.57,269.86,90.9Z"/><path class="m" d="M263.1,117c-.73,1.64-1.06.17-2.79-.61a1.64,1.64,0,0,0-.95-.12c1-.36,1.25-.62,2-.28s1.08-1.93,1.16-3.66,1.69-13,2-13.73-5.5-3-5.5-3c.6-1.33,7.25,1,7.55,1.83s-.7,1.55-2.25,5S263.84,115.37,263.1,117Z"/><polygon class="b" points="34.4 129.31 30.03 135.49 23.25 133.65 18.15 118.83 29.5 117 65.5 122.61 77.59 121.18 92.65 108.67 102.05 114.84 100.67 122.61 86.45 129.31 81.17 135.49 67.66 133.65 34.4 129.31"/><path class="dw" d="M69.92,124.67c6.64-2,5.39-.86,5.63,0s3,4.42,2.34,5.76c-.16.3-.53.4-1.06.36-1.81-.12-5.58-1.79-9.74-1.94-5.38-.19-33.83-3.22-35.22-2.8s-.14,5.81-4.29,5.64c0,0-1.72-2.72-3.23-5.61h0a29.18,29.18,0,0,1-2-4.54C21.29,117.93,63.27,126.65,69.92,124.67Z"/><path class="dx" d="M94.08,112.68c1.72-.52.82.69,1.36,2.51A1.73,1.73,0,0,0,96,116l.06,0c1.09.91,3,.93,1.25,2.23-1.52,1.14-4.92.16-8.85,2.64-9.48,6-6.33,8.43-7.9,8.9-1.4.41-4-6.15-3.56-6.91s1.63-.48,5.24-1.56S92.36,113.19,94.08,112.68Z"/><path class="m" d="M69.92,124.67c6.64-2,5.39-.86,5.63,0s3,4.42,2.34,5.76c-.16.3-.53.4-1.06.36a34.17,34.17,0,0,0-2.26-4.57c-.92-1.35-3.64-.84-6.67-.59S25.68,120.88,25,122.21a9.38,9.38,0,0,0-.61,3.82,29.18,29.18,0,0,1-2-4.54C21.29,117.93,63.27,126.65,69.92,124.67Z"/><path class="m" d="M94.08,112.68c1.72-.52.82.69,1.36,2.51A1.73,1.73,0,0,0,96,116c-.93-.53-1.27-.54-1.5-1.31s-2.17.45-3.52,1.52S80,123.4,79.23,123.64s1.3,6.15,1.3,6.15c-1.4.41-4-6.15-3.56-6.91s1.63-.48,5.24-1.56S92.36,113.19,94.08,112.68Z"/><polygon class="b" points="387.13 91.32 388.59 89.42 383.56 85.79 379.08 86.62 377.25 91.32 382.17 92.88 387.13 91.32"/><polygon class="dy" points="379.68 90.15 380.74 87.6 383.71 87.41 386.37 88.78 386.37 90.32 381.79 91.12 379.68 90.15"/><polygon class="m" points="379.68 90.15 382.18 90.15 385.01 89.83 386.37 88.78 386.37 90.32 381.79 91.12 379.68 90.15"/><polygon class="k" points="380.74 87.6 383.02 88.21 386.37 88.78 383.71 87.41 380.74 87.6"/><polygon class="b" points="358.21 185.67 359.67 183.78 354.64 180.14 350.17 180.98 348.33 185.67 353.25 187.24 358.21 185.67"/><polygon class="dz" points="350.76 184.5 351.82 181.96 354.8 181.76 357.45 183.13 357.45 184.68 352.88 185.48 350.76 184.5"/><polygon class="m" points="350.76 184.5 353.26 184.5 356.09 184.19 357.45 183.13 357.45 184.68 352.88 185.48 350.76 184.5"/><polygon class="k" points="351.82 181.96 354.11 182.56 357.45 183.13 354.8 181.76 351.82 181.96"/><polygon class="b" points="71.86 87.23 73.33 85.34 68.3 81.7 63.82 82.54 61.99 87.23 66.91 88.8 71.86 87.23"/><polygon class="ea" points="64.42 86.07 65.48 83.52 68.45 83.32 71.11 84.69 71.11 86.24 66.53 87.04 64.42 86.07"/><polygon class="m" points="64.42 86.07 66.92 86.07 69.75 85.75 71.11 84.69 71.11 86.24 66.53 87.04 64.42 86.07"/><polygon class="k" points="65.48 83.52 67.76 84.12 71.11 84.69 68.45 83.32 65.48 83.52"/><polygon class="b" points="395.87 85.16 396.63 84.55 394.99 82.61 393.13 82.51 391.94 84.2 393.75 85.3 395.87 85.16"/><polygon class="eb" points="393.02 83.97 393.69 83.06 394.89 83.27 395.81 84.07 395.67 84.69 393.77 84.56 393.02 83.97"/><polygon class="m" points="393.02 83.97 394.02 84.21 395.17 84.36 395.81 84.07 395.67 84.69 393.77 84.56 393.02 83.97"/><polygon class="k" points="393.69 83.06 394.54 83.52 395.81 84.07 394.89 83.27 393.69 83.06"/><polygon class="b" points="244.49 150.26 245.26 149.65 243.61 147.72 241.75 147.61 240.57 149.3 242.37 150.4 244.49 150.26"/><polygon class="ec" points="241.65 149.07 242.32 148.16 243.52 148.37 244.44 149.17 244.29 149.79 242.39 149.66 241.65 149.07"/><polygon class="m" points="241.65 149.07 242.64 149.31 243.8 149.46 244.44 149.17 244.29 149.79 242.39 149.66 241.65 149.07"/><polygon class="k" points="242.32 148.16 243.16 148.62 244.44 149.17 243.52 148.37 242.32 148.16"/><polygon class="b" points="184.06 186.7 184.83 186.09 183.18 184.16 181.32 184.06 180.14 185.74 181.94 186.84 184.06 186.7"/><polygon class="ed" points="181.22 185.51 181.89 184.6 183.09 184.81 184.01 185.62 183.86 186.23 181.96 186.11 181.22 185.51"/><polygon class="m" points="181.22 185.51 182.21 185.76 183.37 185.91 184.01 185.62 183.86 186.23 181.96 186.11 181.22 185.51"/><polygon class="k" points="181.89 184.6 182.74 185.07 184.01 185.62 183.09 184.81 181.89 184.6"/><polygon class="b" points="295.58 199.95 296.34 199.34 294.69 197.41 292.83 197.31 291.65 199 293.46 200.09 295.58 199.95"/><polygon class="ee" points="292.73 198.77 293.4 197.86 294.6 198.07 295.52 198.87 295.37 199.48 293.48 199.36 292.73 198.77"/><polygon class="m" points="292.73 198.77 293.72 199.01 294.88 199.16 295.52 198.87 295.37 199.48 293.48 199.36 292.73 198.77"/><polygon class="k" points="293.4 197.86 294.25 198.32 295.52 198.87 294.6 198.07 293.4 197.86"/><polygon class="b" points="463.86 43.91 464.45 43.14 462.4 41.65 460.57 41.99 459.82 43.91 461.83 44.55 463.86 43.91"/><polygon class="ef" points="460.81 43.44 461.25 42.39 462.46 42.31 463.55 42.87 463.55 43.51 461.68 43.83 460.81 43.44"/><polygon class="m" points="460.81 43.44 461.83 43.44 462.99 43.31 463.55 42.87 463.55 43.51 461.68 43.83 460.81 43.44"/><polygon class="k" points="461.25 42.39 462.18 42.64 463.55 42.87 462.46 42.31 461.25 42.39"/><polygon class="b" points="304.67 21.77 305.42 20.25 314.55 21.77 309.63 23.33 304.67 21.77"/><polygon class="eg" points="312.12 20.6 311.05 18.05 308.08 17.86 305.42 19.23 305.42 20.77 310 21.58 312.12 20.6"/><polygon class="m" points="312.12 20.6 309.62 20.6 306.78 20.29 305.42 19.23 305.42 20.77 310 21.58 312.12 20.6"/><polygon class="k" points="311.05 18.05 308.77 18.66 305.42 19.23 308.08 17.86 311.05 18.05"/><path class="m" d="M299.32,15.58A16.79,16.79,0,0,1,311,14a34.94,34.94,0,0,1,12.37,5.73h0s-6.11-3.77-12.42-4.47a32.22,32.22,0,0,0-12.16,1.22Z"/><path class="eh" d="M298.76,16.47a18.27,18.27,0,0,1,12.41-2.09,36.3,36.3,0,0,1,12.17,5.34h0a35.27,35.27,0,0,0-12.22-4.07c-6.91-.73-9.46.92-9.46.92Z"/></g></svg>