<svg xmlns="http://www.w3.org/2000/svg" height="512" width="512" xmlns:v="https://vecta.io/nano"><path d="m212.645 403.448h86.711v70.055h-86.711z" fill="#a2c7f8"/><path d="M212.645 403.448H244v70.055h-31.355z" fill="#8db3df"/><path d="M343 499.996H169a10 10 0 0 1-10-10v-7.494a10 10 0 0 1 10-10h174a10 10 0 0 1 10 10v7.494a10 10 0 0 1-10 10z" fill="#d8ecfe"/><path d="M209 489.996v-7.494a10 10 0 0 1 10-10h-50a10 10 0 0 0-10 10v7.494a10 10 0 0 0 10 10h50a10 10 0 0 1-10-10z" fill="#c4e2ff"/><path d="M7.5 384.448c0 11.046 8.954 20 20 20h457c11.046 0 20-8.954 20-20v-29.7H7.5z" fill="#d8ecfe"/><path d="M58 384.448v-29.7H7.5v29.7c0 11.046 8.954 20 20 20H78c-11.046 0-20-8.955-20-20z" fill="#c4e2ff"/><path d="M504.5 354.748H7.5V72.983c0-8.284 6.716-15 15-15h467c8.284 0 15 6.716 15 15z" fill="#647fa0"/><path d="M38.936 328.312a5 5 0 0 1-5-5V89.419a5 5 0 0 1 5-5H58V72.983c0-8.284 6.716-15 15-15H22.5c-8.284 0-15 6.716-15 15v281.764H58v-26.436H38.936z" fill="#5e6f90"/><path d="M33.936 323.312V89.419a5 5 0 0 1 5-5h434.128a5 5 0 0 1 5 5v233.892a5 5 0 0 1-5 5H38.936a5 5 0 0 1-5-4.999z" fill="#fed2a4"/><path d="M75.872 323.312V89.419a5 5 0 0 1 5-5H38.936a5 5 0 0 0-5 5v233.892a5 5 0 0 0 5 5h41.936a5 5 0 0 1-5-4.999z" fill="#ffbd86"/><path d="m380.707 204.173-71.672 124.139h153.223l-71.672-124.139c-2.195-3.803-7.683-3.803-9.879 0z" fill="#0182fc"/><path d="m390.587 204.173c-2.196-3.803-7.684-3.803-9.88 0l-56.105 97.177 15.567 26.962h.608l60.741-105.206z" fill="#0172fb"/><path d="M254.453 179.848c-2.195-3.803-7.684-3.803-9.88 0l-30.906 53.532v55.616a5 5 0 0 1-5 5H178.67l-19.812 34.316h181.311z" fill="#0593fc"/><path d="M208.667 293.996H178.67l-19.812 34.316H190l19.914-34.492a4.94 4.94 0 0 1-1.247.176z" fill="#0182fc"/><path d="m254.453 179.848c-2.195-3.803-7.684-3.803-9.88 0l-30.906 53.532v16.631l7.883 13.654c2.564 4.441 8.974 4.441 11.539 0l12.764-22.107c3.51-6.079 12.284-6.079 15.794 0l7.87 13.63c2.564 4.441 8.974 4.441 11.539 0l8.448-14.633z" fill="#fff"/><path d="m225.541 266.752 39.543-68.49-10.631-18.414c-2.195-3.803-7.684-3.803-9.88 0l-30.906 53.532v16.631l7.883 13.654c.94 1.628 2.397 2.653 3.991 3.087z" fill="#eaf6ff"/><path d="M407 122.996c-1.255 0-2.487.094-3.694.266l-22.04 22.04a26.17 26.17 0 0 0-.266 3.694c0 14.359 11.641 26 26 26s26-11.641 26-26-11.641-26-26-26z" fill="#fe9901"/><path d="M417 124.992a25.92 25.92 0 0 0-10-1.996c-1.255 0-2.487.094-3.694.266l-22.04 22.04a26.17 26.17 0 0 0-.266 3.694c0 14.359 11.641 26 26 26A25.92 25.92 0 0 0 417 173c-9.395-3.918-16-13.189-16-24.004s6.605-20.086 16-24.004z" fill="#fb8801"/><path d="M203.667 114.996H75a10 10 0 0 0-10 10v34.038l2.389 1H211.1l2.567-1v-34.038a10 10 0 0 0-10-10z" fill="#fe646f"/><path d="M96.333 124.996a10 10 0 0 1 10-10H75a10 10 0 0 0-10 10v34.038l2.389 1h31.333l-2.389-1z" fill="#fd4755"/><path d="M208.667 293.996H70a5 5 0 0 1-5-5V159.034h148.667v129.962a5 5 0 0 1-5 5z" fill="#eaf6ff"/><path d="M96.333 288.996V159.034H65v129.962a5 5 0 0 0 5 5h31.333a5 5 0 0 1-5-5z" fill="#d8ecfe"/><g fill="#0593fc"><circle cx="159.167" cy="247.534" r="13.5"/><circle cx="119.167" cy="204.534" r="13.5"/></g><path d="M483.483 30.93l-16.417-16.417a8.6 8.6 0 0 0-12.155 0L319.354 150.07l.118 1.333 27.175 27.175 1.279.064L483.483 43.085a8.6 8.6 0 0 0 0-12.155z" fill="#8db3df"/><path d="M348.89 146.535L473.988 21.436l-6.923-6.923a8.6 8.6 0 0 0-12.155 0L319.354 150.07l.118 1.333 27.175 27.175 1.279.064 13-13-12.036-12.036a5 5 0 0 1 0-7.071z" fill="#799fca"/><path d="M319.354 150.07a8.59 8.59 0 0 0-1.879 2.827l-16.752 41.014c-.864 2.115 1.247 4.226 3.362 3.362l41.014-16.752a8.59 8.59 0 0 0 2.827-1.879z" fill="#647fa0"/><path d="M418.055 51.362l15.835-15.835 28.567 28.567-15.835 15.835z" fill="#c4e2ff"/><path d="M418.056 51.362l15.835-15.835 12.998 12.998-15.835 15.835z" fill="#b3dafe"/><path d="M238 371.49a7.5 7.5 0 1 0 0 15h36a7.5 7.5 0 1 0 0-15zM90 255.034h49.576c3.028 7.881 10.657 13.5 19.591 13.5s16.563-5.619 19.591-13.5h9.909a7.5 7.5 0 1 0 0-15h-9.909c-3.028-7.881-10.657-13.5-19.591-13.5s-16.563 5.619-19.591 13.5H90a7.5 7.5 0 1 0 0 15zm69.167-13.5a6.01 6.01 0 0 1 6 6 6.01 6.01 0 0 1-6 6 6.01 6.01 0 0 1-6-6 6.01 6.01 0 0 1 6-6zM90 212.034h9.576c3.028 7.881 10.657 13.5 19.591 13.5s16.563-5.619 19.591-13.5h49.909a7.5 7.5 0 1 0 0-15h-49.909c-3.028-7.881-10.657-13.5-19.591-13.5s-16.563 5.619-19.591 13.5H90a7.5 7.5 0 1 0 0 15zm29.167-13.5a6.01 6.01 0 0 1 6 6 6.01 6.01 0 0 1-6 6 6.01 6.01 0 0 1-6-6 6.01 6.01 0 0 1 6-6z"/><circle cx="190.167" cy="135.534" r="7.5"/><circle cx="169.5" cy="135.534" r="7.5"/><circle cx="148.833" cy="135.534" r="7.5"/><path d="M489.5 50.483h-2.809l2.095-2.095c6.275-6.275 6.275-16.486 0-22.761L472.368 9.209c-6.275-6.274-16.485-6.274-22.761 0l-41.271 41.273H22.5c-12.406 0-22.5 10.093-22.5 22.5v311.464c0 15.164 12.336 27.5 27.5 27.5h177.645v53.055H169c-9.649 0-17.5 7.851-17.5 17.5v7.494c0 9.649 7.851 17.5 17.5 17.5h174c9.649 0 17.5-7.851 17.5-17.5v-7.494c0-9.649-7.851-17.5-17.5-17.5h-36.145v-53.055H387a7.5 7.5 0 1 0 0-15H27.5c-6.893 0-12.5-5.607-12.5-12.5v-22.2h482v22.2c0 6.893-5.607 12.5-12.5 12.5H422a7.5 7.5 0 1 0 0 15h62.5c15.164 0 27.5-12.336 27.5-27.5V72.983c0-12.406-10.094-22.5-22.5-22.5zM343 480.002c1.379 0 2.5 1.122 2.5 2.5v7.494c0 1.378-1.121 2.5-2.5 2.5H169c-1.379 0-2.5-1.122-2.5-2.5v-7.494c0-1.378 1.121-2.5 2.5-2.5zm-122.855-68.054h71.711v53.055h-71.711zM460.214 19.817c.428-.427 1.122-.426 1.548 0l16.417 16.417c.427.427.427 1.122 0 1.548l-15.665 15.665-17.965-17.965zm-26.272 26.272l17.964 17.965-5.231 5.231-17.964-17.965zm-15.838 15.838l17.965 17.965-88.751 88.751-17.965-17.965zM407 130.496c10.201 0 18.5 8.299 18.5 18.5s-8.299 18.5-18.5 18.5-18.5-8.299-18.5-18.5c0-.119.016-.234.018-.353l18.132-18.129c.117-.002.232-.018.35-.018zm-72.706 46.337l-22.197 9.066 9.066-22.197zM497 347.248H15V72.983a7.51 7.51 0 0 1 7.5-7.5h370.837l-11.436 11.436H127a7.5 7.5 0 1 0 0 15h239.902l-52.901 52.904a16 16 0 0 0-3.469 5.238l-16.753 41.016c-1.537 3.767-.671 8.06 2.206 10.936 1.931 1.931 4.499 2.955 7.118 2.955 1.284 0 2.579-.246 3.818-.751l41.015-16.752a16 16 0 0 0 5.106-3.349l22.816-22.813c4.915 12.399 17.015 21.194 31.143 21.194 18.472 0 33.5-15.028 33.5-33.5 0-14.126-8.793-26.225-21.19-31.141L445.25 91.92h25.314v228.893h-3.975l-27.18-47.077a7.5 7.5 0 1 0-12.99 7.5l22.85 39.577h-104.77l-11.237-19.463 52.385-90.733 23.271 40.308a7.5 7.5 0 1 0 12.99-7.5l-24.827-43.001c-2.387-4.134-6.661-6.602-11.435-6.602s-9.049 2.468-11.436 6.602l-49.61 85.927L260.946 176.1c-2.387-4.134-6.661-6.602-11.436-6.602s-9.048 2.468-11.435 6.602l-16.911 29.291v-80.393c0-9.649-7.851-17.5-17.5-17.5H75c-9.649 0-17.5 7.851-17.5 17.5v164c0 6.893 5.607 12.5 12.5 12.5h95.679l-11.152 19.316H41.437V91.919H92a7.5 7.5 0 1 0 0-15H38.937c-6.893 0-12.5 5.607-12.5 12.5v233.893c0 6.893 5.607 12.5 12.5 12.5h434.127c6.893 0 12.5-5.607 12.5-12.5V89.419c0-6.893-5.607-12.5-12.5-12.5h-12.812l11.438-11.436h17.81a7.51 7.51 0 0 1 7.5 7.5zM206.167 166.534v119.962H72.5V166.534zm-133.667-15v-26.538c0-1.378 1.121-2.5 2.5-2.5h128.667c1.379 0 2.5 1.122 2.5 2.5v26.538zM183 301.496h25.667c6.893 0 12.5-5.607 12.5-12.5v-15.887c1.876.9 3.965 1.387 6.153 1.387 5.12 0 9.704-2.648 12.263-7.081l12.764-22.107c.386-.668.976-.809 1.401-.809s1.017.141 1.402.809l7.869 13.629c2.56 4.435 7.145 7.082 12.266 7.082s9.705-2.647 12.264-7.081l1.954-3.384 37.676 65.257H171.848zm38.167-53.493v-12.614l28.347-49.097 31.328 54.262-5.558 9.626-7.144-12.373c-3.004-5.203-8.384-8.309-14.393-8.309s-11.388 3.106-14.392 8.309l-12.038 20.85z"/></svg>