<svg xmlns="http://www.w3.org/2000/svg" height="682.667" viewBox="0 0 512 512" width="682.667" xmlns:v="https://vecta.io/nano"><path d="M504.5 256c0 137.242-111.258 248.5-248.5 248.5S7.5 393.242 7.5 256 118.758 7.5 256 7.5 504.5 118.758 504.5 256zm0 0" fill="#c3ddff"/><path d="M7.5 256c0 113.613 76.277 209.352 180.395 238.973 63.102-22.684 74.668-73.246 64.098-106.207-8.516-26.551-40.582-41.582-80.828-28.555-49.34 15.969-84.445 7.574-103.543-11.523-13.855-13.855-14.777-35.312-4.922-53.035 7.59-13.652 21.387-22.695 36.641-26.055 35.344-7.781 138.797-33.805 139.625-71.879.68-31.148-22.543-50.234-79.156-75.895-37.625-17.055-48.023-52.594-33.93-77.535C54.859 88.031 7.5 166.473 7.5 256zm0 0" fill="#ccf49f"/><path d="M296.082 464.418c-137.242 0-248.5-111.258-248.5-248.5 0-58.406 20.203-112.066 53.93-154.488C44.254 106.957 7.5 177.164 7.5 256c0 137.242 111.258 248.5 248.5 248.5 78.836 0 149.047-36.754 194.57-94.012-42.422 33.73-96.082 53.93-154.488 53.93zm0 0" fill="#a4ccff"/><path d="M97.574 365.398c-12.383-3.367-22.43-9.187-29.953-16.711-13.234-13.234-14.551-33.367-6.066-50.594a247.99 247.99 0 0 1-13.973-82.172c0-58.41 20.203-112.066 53.93-154.488C44.254 106.957 7.5 177.164 7.5 256c0 113.613 76.277 209.352 180.395 238.973 24.816-8.922 41.566-22.18 52.23-36.957-57.828-13.316-107.957-46.754-142.551-92.617zm0 0" fill="#b3e59f"/><path d="M256 7.5c-22.668 0-44.602 3.094-65.469 8.777-30.336 52.398 12.695 81.156 56.449 84.328 55.613 4.035 93.113-40.426 121.914-2.855 22.18 28.934-55.73 59.863-34.641 102.137l-21.48 116.328c-3.004 12.633-2.508 24.902 4.352 36.145 23.047 37.781 93.855-11.332 78.488 47.004-7.797 29.602-9.355 51.133-7.191 66.871C458.148 422.227 504.5 344.547 504.5 256 504.5 118.758 393.242 7.5 256 7.5zm0 0" fill="#ccf49f"/><path d="M400.289 320.129H111.711c-17.711 0-32.066-14.355-32.066-32.066v-64.129c0-17.707 14.355-32.062 32.066-32.062h288.578c17.711 0 32.066 14.355 32.066 32.063v64.129c0 17.711-14.355 32.066-32.066 32.066zm0 0" fill="#fff"/><path d="M387.672 446.93c-.301 7.238-.027 13.664.75 19.309 23.625-14.914 44.477-33.762 61.84-55.516-18.844 14.934-39.898 27.184-62.59 36.207zm0 0" fill="#b3e59f"/><path d="M135.758 296.082c-17.707 0-32.066-14.355-32.066-32.066v-71.012c-13.805 3.574-24.047 16.008-24.047 30.93v64.129c0 17.711 14.355 32.066 32.066 32.066h288.578c14.926 0 27.355-10.242 30.934-24.047zm0 0" fill="#edf4ff"/><path d="M194.758 225.027a7.5 7.5 0 0 0-9.809 4.039l-13.121 31.48-13.113-31.48c-1.164-2.793-3.898-4.613-6.926-4.613a7.5 7.5 0 0 0-6.922 4.613l-13.117 31.48-13.117-31.48a7.501 7.501 0 1 0-13.848 5.77l20.039 48.098c1.168 2.797 3.898 4.617 6.926 4.617s5.758-1.82 6.922-4.617l13.117-31.48 13.117 31.48c1.164 2.793 3.895 4.617 6.922 4.617a7.51 7.51 0 0 0 6.926-4.617l20.039-48.098c1.594-3.824-.215-8.215-4.035-9.809zm104.207 0a7.5 7.5 0 0 0-9.809 4.039l-13.117 31.48-13.117-31.48a7.5 7.5 0 0 0-6.922-4.613 7.51 7.51 0 0 0-6.926 4.613l-13.117 31.48-13.117-31.48a7.5 7.5 0 0 0-9.809-4.039 7.51 7.51 0 0 0-4.039 9.809l20.043 48.098c1.164 2.793 3.895 4.617 6.922 4.617a7.51 7.51 0 0 0 6.926-4.617L256 251.453l13.117 31.48a7.5 7.5 0 0 0 13.848 0l20.039-48.098a7.5 7.5 0 0 0-4.039-9.809zm88.207 57.907l20.043-48.098a7.501 7.501 0 1 0-13.848-5.77l-13.117 31.48-13.117-31.48c-1.164-2.797-3.895-4.617-6.922-4.617a7.51 7.51 0 0 0-6.926 4.617l-13.117 31.48-13.117-31.48a7.5 7.5 0 0 0-9.809-4.039 7.51 7.51 0 0 0-4.039 9.809l20.043 48.098a7.5 7.5 0 0 0 6.922 4.613c3.027 0 5.762-1.82 6.926-4.613l13.117-31.48 13.117 31.48a7.5 7.5 0 0 0 13.844 0zM437.02 74.98C388.668 26.629 324.379 0 256 0S123.332 26.629 74.98 74.98 0 187.621 0 256s26.629 132.668 74.98 181.02S187.621 512 256 512s132.668-26.629 181.02-74.98S512 324.379 512 256s-26.629-132.668-74.98-181.02zm-258.812-2.629c10.512 20.125 36.66 34.043 68.234 36.316 24.102 1.738 44.453-4.848 62.406-10.656 27.191-8.801 40.848-12.266 54.109 4.918 4.93 6.395 3.641 11.211-14.023 28.875-12.988 12.988-30.195 30.207-24.832 52.566h-77.727c-2.297-30.379-31.754-48.465-83.687-70.066-28.527-11.867-34.043-30.875-35.09-38.496-1.66-12.066 3.191-23.555 13.305-31.523.148-.113.281-.238.418-.363a237.47 237.47 0 0 1 35.719-15.73c-7.352 19.805-3.824 34.602 1.168 44.16zm32.855 420.473c20.539-10.652 35.617-25.391 44.176-43.383 9.145-19.223 10.566-42.172 3.895-62.965-4.289-13.371-13.863-24.434-26.969-31.148-17.535-8.992-40.02-9.793-63.309-2.254-41.406 13.402-76.371 9.867-95.93-9.691-7.391-7.391-10.684-17.547-9.27-28.602a42.91 42.91 0 0 1 8.895-21.105c2.734 19.168 19.25 33.953 39.16 33.953h192.188c-1.281 11.594 1.031 22.043 6.93 31.148 12.633 19.496 35.723 18.895 54.281 18.418 9.844-.254 21-.543 23.883 3.156 1.891 2.422 1.668 8.469-.602 16.582-7.332 26.211-9.863 48.156-7.547 65.305C343.578 484.891 300.723 497 256 497a243.38 243.38 0 0 1-44.937-4.176zm215.352-66.41a243.84 243.84 0 0 1-31.332 26.469c-.574-14 2.016-31.395 7.754-51.906 3.828-13.687 3.191-23.168-2.012-29.844-7.535-9.668-21.41-9.312-36.102-8.934-16.348.426-33.246.859-41.305-11.578-4.332-6.687-5.762-14.094-4.406-22.992h41.195a7.5 7.5 0 1 0 0-15H111.711c-13.547 0-24.566-11.02-24.566-24.562v-64.129c0-13.547 11.02-24.566 24.566-24.566h8.02a7.5 7.5 0 0 0 7.5-7.5c0-4.141-3.359-7.5-7.5-7.5h-8.02c-21.816 0-39.566 17.75-39.566 39.566v49.777c-12.496 8.633-21.34 23.316-23.367 39.164-2.016 15.762 2.793 30.363 13.539 41.109 23.688 23.688 64.199 28.555 111.156 13.355 19.469-6.301 37.883-5.828 51.848 1.332 9.668 4.957 16.422 12.695 19.531 22.383 5.516 17.195 4.363 36.129-3.156 51.938-9.434 19.832-27.945 34.598-54.988 43.938-37.801-11.289-72.441-31.84-101.121-60.523C40.066 380.895 15 320.375 15 256S40.066 131.105 85.586 85.586a244.42 244.42 0 0 1 27.574-23.75c-1.016 5.16-1.176 10.539-.426 16.012 2.957 21.52 19.066 39.855 44.191 50.305 51.762 21.531 72.016 36.484 74.367 56.219h-79.5a7.5 7.5 0 0 0-7.5 7.5c0 4.141 3.359 7.5 7.5 7.5h248.496c13.547 0 24.566 11.02 24.566 24.563v64.129c0 13.547-11.02 24.566-24.566 24.566h-8.02a7.5 7.5 0 0 0-7.5 7.5c0 4.141 3.359 7.5 7.5 7.5h8.02c21.816 0 39.566-17.75 39.566-39.566v-64.129c0-21.816-17.75-39.562-39.566-39.562h-60.48c-5.793-14.812 4.156-26.391 19.73-41.961 13.285-13.285 29.82-29.816 15.293-48.645-20.301-26.305-44.734-18.398-70.602-10.027-16.652 5.391-35.52 11.492-56.711 9.969-26.43-1.906-47.895-12.75-56.016-28.301-6.223-11.91-4.602-26.367 4.762-42.98C215.555 17.531 235.582 15 256 15c64.375 0 124.895 25.066 170.414 70.586S497 191.625 497 256s-25.066 124.895-70.586 170.414zm0 0"/></svg>