<svg xmlns="http://www.w3.org/2000/svg" height="682.667" viewBox="0 0 512 512" width="682.667" xmlns:v="https://vecta.io/nano"><path d="M378.871 374.449c-3.855 3.953-7.836 7.785-11.941 11.48-3.695 4.105-7.527 8.086-11.48 11.941l95.34 95.34C456.648 499.07 464.32 502 472 502c3.199 0 6.398-.516 9.465-1.535 3.461-10.43 1.047-22.379-7.254-30.676zm0 0" fill="#4dbbeb"/><path d="M354.219 396.641c4.637-3.648 9.125-7.473 13.492-11.43 3.957-4.367 7.781-8.855 11.43-13.492l-41.199-41.199c-4.043 4.27-8.277 8.348-12.691 12.23a192.3 192.3 0 0 1-12.23 12.691zm0 0" fill="#fff5cd"/><path d="M226 11.785C133.488 24.504 62 104.051 62 200c0 95.961 71.504 175.516 164.027 188.219 31.578-4.348 60.711-16.48 85.383-34.398a191.25 191.25 0 0 0 42.41-42.41C376.57 280.09 390 241.578 390 200c0-95.949-71.488-175.496-164-188.215zm0 0" fill="#4dbbeb"/><path d="M200 50c82.711 0 150 67.289 150 150s-67.289 150-150 150S50 282.711 50 200 117.289 50 200 50zm0 0" fill="#fff"/><path d="M225 52.094C154.148 64.031 100 125.809 100 200s54.148 135.969 125 147.906C295.852 335.969 350 274.191 350 200S295.852 64.031 225 52.094zm0 0" fill="#bee7f4"/><path d="M500.281 443.719l-133.48-133.48C388.547 277.484 400 239.555 400 200 400 89.719 310.281 0 200 0S0 89.719 0 200s89.719 200 200 200c39.555 0 77.484-11.453 110.238-33.199l36.895 36.895a.07.07 0 0 1 .016.02l96.57 96.566A39.73 39.73 0 0 0 472 512c10.68 0 20.723-4.16 28.277-11.715A39.74 39.74 0 0 0 512 472a39.72 39.72 0 0 0-11.719-28.281zm-173.766-88.926a200.7 200.7 0 0 0 28.277-28.277l28.371 28.371a242.89 242.89 0 0 1-28.277 28.277zM20 200c0-99.254 80.746-180 180-180s180 80.746 180 180c0 38.176-11.852 74.668-34.273 105.535a180.79 180.79 0 0 1-40.191 40.191v.004C274.668 368.148 238.176 380 200 380c-99.254 0-180-80.746-180-180zm466.141 286.141a19.88 19.88 0 0 1-28.282 0l-88.793-88.797c10.125-8.691 19.586-18.148 28.277-28.277l88.797 88.797A19.85 19.85 0 0 1 492 472a19.87 19.87 0 0 1-5.859 14.141zM360 200c0-88.227-71.773-160-160-160S40 111.773 40 200s71.773 160 160 160 160-71.773 160-160zM200 340c-77.195 0-140-62.805-140-140S122.805 60 200 60s140 62.805 140 140-62.805 140-140 140zm106.316-170.004c5.156-1.98 7.73-7.766 5.75-12.922-8.613-22.414-23.605-41.574-43.363-55.414C248.48 87.488 224.723 80 200 80a10 10 0 1 0 0 20c41.098 0 78.633 25.816 93.395 64.246a10.01 10.01 0 0 0 9.34 6.418 9.97 9.97 0 0 0 3.582-.668zM310 190c-5.52 0-10 4.48-10 10s4.48 10 10 10 10-4.48 10-10-4.48-10-10-10zm0 0"/></svg>