<svg xmlns="http://www.w3.org/2000/svg" xmlns:xlink="http://www.w3.org/1999/xlink" height="512" viewBox="0 0 512.001 512.001" width="512" xmlns:v="https://vecta.io/nano"><path d="M465.99 55.651V166.76h-91.786v-49.186h-69.8V55.651z" fill="#f07281"/><path d="M354.077 62.804v-7.153h-49.673v61.922h69.801v49.186h29.804v-54.024a24.97 24.97 0 0 0-24.966-24.966c-13.789.001-24.966-11.177-24.966-24.965z" fill="#eb5569"/><path d="M85.052 119.233H22.353c-8.23 0-14.902-6.672-14.902-14.902s6.672-14.902 14.902-14.902h62.699c8.187 0 14.84 6.604 14.901 14.791.062 8.273-6.628 15.013-14.901 15.013z" fill="#f07281"/><path d="m447.735 345.579h-267.27l-47.481-178.823h351.682c13.046 0 22.552 12.359 19.204 24.968l-36.93 139.085c-2.313 8.708-10.195 14.77-19.205 14.77z" fill="#8ac9fe"/><path d="M503.871 191.726l-1.282 4.838H241.275c-19.569 0-33.828 18.539-28.806 37.453l29.625 111.566H180.47L132.982 166.76h351.685c13.044 0 22.552 12.359 19.204 24.966z" fill="#60b7ff"/><path d="M249.511 399.389c-24.69 0-44.706 20.015-44.706 44.706s20.015 44.706 44.706 44.706 44.706-20.015 44.706-44.706-20.016-44.706-44.706-44.706zm0 59.607c-8.217 0-14.902-6.685-14.902-14.902s6.685-14.902 14.902-14.902 14.902 6.685 14.902 14.902-6.685 14.902-14.902 14.902zm139.596-59.607c-24.69 0-44.706 20.015-44.706 44.706s20.015 44.706 44.706 44.706 44.706-20.015 44.706-44.706-20.015-44.706-44.706-44.706zm0 59.607c-8.217 0-14.902-6.685-14.902-14.902s6.685-14.902 14.902-14.902 14.902 6.685 14.902 14.902-6.685 14.902-14.902 14.902z" fill="#aa9ea9"/><path d="m180.465 117.577h193.74v49.181h-193.74z" fill="#fee97d"/><path d="m180.469 117.574h69.542v49.186h-69.542z" fill="#fee45a"/><path d="M506.313 169.952a27.17 27.17 0 0 0-21.693-10.682h-11.17v-38.569a7.5 7.5 0 1 0-15 0v38.569h-76.765v-41.667c0-2.848-1.587-5.325-3.925-6.595-1.064-.579-2.283-.908-3.58-.908H311.9V63.191h38.708v14.188a7.5 7.5 0 1 0 15 0V63.191h39.133v14.188a7.5 7.5 0 1 0 15 0V63.191h38.709V88.02a7.5 7.5 0 1 0 15 0V55.691a7.5 7.5 0 0 0-7.5-7.5h-46.28c-1.1-18.075-16.148-32.446-34.496-32.446s-33.395 14.371-34.495 32.446H304.4a7.5 7.5 0 0 0-7.5 7.5v27.07c-5.569-3.84-12.31-6.095-19.571-6.095-18.681 0-33.938 14.899-34.538 33.437h-62.31a7.5 7.5 0 0 0-7.5 7.5v41.667h-34.157l-10.117-39.365c-2.966-11.543-11.551-19.89-22.271-22.307-2.884-9.049-11.387-15.637-21.35-15.637H22.399C10.048 81.961 0 92.008 0 104.36s10.048 22.398 22.399 22.398h62.687c6.015 0 11.66-2.351 15.897-6.619a22.36 22.36 0 0 0 4.754-7.099c4.077 1.785 7.136 5.514 8.442 10.598l42.752 162.457a7.5 7.5 0 0 0 9.173 5.324c4.004-1.063 6.387-5.17 5.325-9.174L142.761 174.27h37.623c.033 0 .064.005.097.005h193.583c.039.001.077.006.116.006h91.77c.072 0 .141-.009.212-.011h18.458c3.871 0 7.444 1.759 9.803 4.826a12.28 12.28 0 0 1 2.148 10.72l-36.92 139.052c-1.435 5.412-6.35 9.192-11.951 9.192H186.249l-6.14-23.124c-1.063-4.003-5.171-6.384-9.174-5.324a7.5 7.5 0 0 0-5.324 9.174l15.893 60.24c3.925 14.964 16.635 25.802 31.712 27.575-9.794 9.494-15.9 22.773-15.9 37.458 0 28.781 23.416 52.197 52.197 52.197s52.197-23.416 52.197-52.197c0-14.55-5.99-27.722-15.626-37.197h66.428c-9.636 9.475-15.626 22.648-15.626 37.197 0 28.781 23.416 52.197 52.197 52.197s52.197-23.416 52.197-52.197c0-14.55-5.99-27.722-15.626-37.197h18.91a7.5 7.5 0 1 0 0-15H217.582c-10.129 0-18.999-6.843-21.569-16.641l-5.812-22.161H447.7c12.396 0 23.272-8.367 26.449-20.345l36.919-139.049c2.2-8.281.467-16.924-4.755-23.714zM385.174 30.745c10.072 0 18.386 7.651 19.447 17.446h-38.893c1.06-9.795 9.374-17.446 19.446-17.446zM85.086 111.758H22.399A7.41 7.41 0 0 1 15 104.36a7.41 7.41 0 0 1 7.399-7.399h62.687a7.42 7.42 0 0 1 7.398 7.344 7.35 7.35 0 0 1-7.398 7.453zM277.33 91.667c10.408 0 18.919 8.174 19.509 18.437H257.82c.59-10.263 9.102-18.437 19.51-18.437zm-89.349 33.436h54.782v13.196a7.5 7.5 0 1 0 15 0v-13.196h39.133v13.196a7.5 7.5 0 1 0 15 0v-13.196h54.784v34.167H187.981zm238.3 318.956c0 20.511-16.687 37.197-37.197 37.197s-37.197-16.687-37.197-37.197 16.687-37.197 37.197-37.197 37.197 16.686 37.197 37.197zm-139.571 0c0 20.511-16.687 37.197-37.197 37.197s-37.197-16.687-37.197-37.197 16.687-37.197 37.197-37.197 37.197 16.686 37.197 37.197zm-71.851-135.694h213.743a7.5 7.5 0 1 0 0-15H214.859a7.5 7.5 0 1 0 0 15zm244.979-96.895a7.5 7.5 0 0 0-7.5-7.5H191.123a7.5 7.5 0 1 0 0 15h261.215a7.5 7.5 0 0 0 7.5-7.5z"/><use xlink:href="#B"/><use xlink:href="#B" x="139.57"/><path d="M303.68 256.17a7.5 7.5 0 0 0-7.5-7.5h-93.19a7.5 7.5 0 1 0 0 15h93.19a7.5 7.5 0 0 0 7.5-7.5zm144.29 0a7.5 7.5 0 0 0-7.5-7.5h-111.6a7.5 7.5 0 1 0 0 15h111.6a7.5 7.5 0 0 0 7.5-7.5z"/><defs ><path id="B" d="m249.513 466.459c12.351 0 22.399-10.048 22.399-22.399s-10.048-22.399-22.399-22.399-22.399 10.048-22.399 22.399 10.049 22.399 22.399 22.399zm0-29.799c4.08 0 7.399 3.319 7.399 7.399s-3.319 7.399-7.399 7.399-7.399-3.319-7.399-7.399 3.32-7.399 7.399-7.399z"/></defs></svg>